<svg width="50" height="50" viewBox="0 0 50 50" fill="none" xmlns="http://www.w3.org/2000/svg">
<rect width="50" height="50" rx="5" fill="white"/>
<g clip-path="url(#clip0_1425_548)">
<path fill-rule="evenodd" clip-rule="evenodd" d="M9.9408 25V10.528C9.9408 9.744 10.6256 9 11.3648 9C11.8263 8.99536 12.2796 9.12186 12.672 9.3648L39.208 23.872C39.7776 24.1824 40.0624 24.592 40.0592 25C40.056 25.408 39.7776 25.8176 39.208 26.128L12.6704 40.6368C12.2783 40.8788 11.8256 41.0047 11.3648 41C10.6272 41 9.9424 40.2576 9.9424 39.472L9.9408 25Z" fill="url(#paint0_linear_1425_548)"/>
<path fill-rule="evenodd" clip-rule="evenodd" d="M27.1792 25.0944L11.1136 9.0288C11.196 9.00975 11.2802 9.00008 11.3648 9C11.8263 8.99536 12.2796 9.12186 12.672 9.3648L32.2224 20.0528L27.1792 25.0944Z" fill="url(#paint1_linear_1425_548)"/>
<path fill-rule="evenodd" clip-rule="evenodd" d="M32.1008 30.0144L27.1808 25.0944L32.2224 20.0512L39.208 23.872C39.7776 24.1824 40.0624 24.592 40.0592 25C40.056 25.408 39.7776 25.8176 39.208 26.128L32.1008 30.0144Z" fill="url(#paint2_linear_1425_548)"/>
<path fill-rule="evenodd" clip-rule="evenodd" d="M11.2784 41L11.2928 40.9856L27.1808 25.0976L32.1008 30.0176L12.6704 40.6368C12.2782 40.8788 11.8256 41.0047 11.3648 41H11.2784Z" fill="url(#paint3_linear_1425_548)"/>
</g>
<defs>
<linearGradient id="paint0_linear_1425_548" x1="18.8704" y1="7.088" x2="26.5664" y2="38.7008" gradientUnits="userSpaceOnUse">
<stop stop-color="#006884"/>
<stop offset="1" stop-color="#8AD1D0"/>
</linearGradient>
<linearGradient id="paint1_linear_1425_548" x1="9.48319" y1="11.584" x2="30.4592" y2="22.9248" gradientUnits="userSpaceOnUse">
<stop stop-color="#24BBB6"/>
<stop offset="1" stop-color="#DBE692"/>
</linearGradient>
<linearGradient id="paint2_linear_1425_548" x1="33.6192" y1="30.5264" x2="33.6192" y2="19.5984" gradientUnits="userSpaceOnUse">
<stop stop-color="#FCC072"/>
<stop offset="1" stop-color="#F58A5B"/>
</linearGradient>
<linearGradient id="paint3_linear_1425_548" x1="13.544" y1="43.7952" x2="30.1152" y2="26.9296" gradientUnits="userSpaceOnUse">
<stop stop-color="#712B8F"/>
<stop offset="1" stop-color="#EA1D27"/>
</linearGradient>
<clipPath id="clip0_1425_548">
<rect width="32" height="32" fill="white" transform="translate(9 9)"/>
</clipPath>
</defs>
</svg>
