<svg xmlns="http://www.w3.org/2000/svg" viewBox="0 0 51.95 54.35"><defs><style>.cls-1{fill:#ffcea1;}.cls-2{fill:#ededed;}.cls-3{fill:#3c3c3b;}.cls-4{fill:#575756;}.cls-5{fill:#878787;}.cls-6{fill:#9d9d9c;}.cls-7{fill:#706f6f;}.cls-8{fill:#e94e1b;}.cls-9{fill:#94211b;}.cls-10{fill:#d9052f;}.cls-11{fill:#262626;}.cls-12,.cls-14{fill:#1d1d1b;}.cls-12{opacity:0.2;}.cls-13{fill:#f6f6f6;}.cls-14{opacity:0.1;}.cls-15{fill:#c6c6c6;}.cls-16{fill:#b2b2b2;}.cls-17{fill:#b80528;}.cls-18{fill:#dadada;}.cls-19{fill:#4f4f4e;}.cls-20{fill:#7a7a7a;}.cls-21{fill:#5e5e5d;}.cls-22{fill:#296aae;}.cls-23{fill:#f9f9f9;}.cls-24{fill:#484847;}.cls-25{fill:#2c71ba;}.cls-26{fill:#fff;}.cls-27{fill:#634e42;}.cls-28{fill:#327d9c;}</style></defs><title>Asset 1</title><g id="Layer_2" data-name="Layer 2"><g id="Layer_1-2" data-name="Layer 1"><path class="cls-1" d="M35.35,13.21l-.1.4a1.11,1.11,0,0,1-1.33.84h0a1.12,1.12,0,0,1-.85-1.34l.08-.33A2.93,2.93,0,0,0,35.35,13.21Z"/><path class="cls-2" d="M36.4,8.78l-1,4.43-.22,0a3.12,3.12,0,0,1-2-.46l0,0L34.2,8.29a1.13,1.13,0,0,1,1.34-.85h0A1.11,1.11,0,0,1,36.4,8.78Z"/><path class="cls-3" d="M34.17,29.61a.48.48,0,1,1-1,0,.48.48,0,0,1,1,0Z"/><path class="cls-3" d="M33.05,34.43a.48.48,0,0,1-.95,0,.48.48,0,1,1,.95,0Z"/><path class="cls-3" d="M40.71,36.64a.48.48,0,1,1-.47-.48A.48.48,0,0,1,40.71,36.64Z"/><path class="cls-3" d="M46.46,33.22a.48.48,0,1,1-.48-.47A.47.47,0,0,1,46.46,33.22Z"/><path class="cls-3" d="M42.93,28.59a.47.47,0,0,1-.47.48.48.48,0,1,1,0-.95A.47.47,0,0,1,42.93,28.59Z"/><polygon class="cls-4" points="42.97 28.22 42.97 27.57 42.09 27.96 38.77 31.05 33.96 28.7 33.26 28.45 33.26 29.11 37.32 31.88 31.98 33.14 31.98 33.8 32.42 34.31 38.25 32.94 39.75 36.46 40.73 36.37 40.73 35.72 40.27 32.75 46.55 33.02 46.7 32.45 46.7 31.8 40.59 31.59 42.97 28.22"/><polygon class="cls-5" points="42.97 27.57 42.09 27.31 38.77 30.39 33.96 28.05 33.26 28.45 37.32 31.23 31.98 33.14 32.42 33.65 38.25 32.28 39.75 35.81 40.73 35.72 40.27 32.09 46.55 32.36 46.7 31.8 40.59 30.93 42.97 27.57"/><path class="cls-4" d="M39.68,31a.4.4,0,0,1,0,.75,1.42,1.42,0,0,1-1.3,0,.4.4,0,0,1,0-.75A1.42,1.42,0,0,1,39.68,31Z"/><rect class="cls-4" x="38.11" y="25.46" width="1.84" height="5.92"/><path class="cls-6" d="M39,19.9l-7.27,4.19c-.33.2-.6,0-.6-.35v0a3.1,3.1,0,0,1,1.4-2.43L39,17.56c.34-.2.61,0,.61.35v.94A1.35,1.35,0,0,1,39,19.9Z"/><path class="cls-7" d="M37.66,17.62,39.59,5.1a1.1,1.1,0,0,1,.56-.79l.94-.37c.28-.11.47.09.41.44L39.65,16.69a1.13,1.13,0,0,1-.49.75l-1,.59C37.83,18.21,37.6,18,37.66,17.62Z"/><polygon class="cls-7" points="37.87 27.95 31.21 24.09 39.37 17.5 46.05 21.37 37.87 27.95"/><polygon class="cls-7" points="47.94 7.75 41.38 3.95 37.79 18.06 44.39 21.87 47.94 7.75"/><path class="cls-3" d="M45.59,23.73l-7.27,4.2c-.33.19-.6,0-.6-.35v0a3.1,3.1,0,0,1,1.4-2.43l6.47-3.73c.34-.2.61,0,.61.35v.94A1.32,1.32,0,0,1,45.59,23.73Z"/><path class="cls-3" d="M44.29,21.45,46.22,8.93a1.1,1.1,0,0,1,.56-.79l.94-.37c.28-.11.46.09.41.44L46.28,20.52a1.13,1.13,0,0,1-.5.76l-1,.58C44.46,22,44.23,21.84,44.29,21.45Z"/><path class="cls-8" d="M28.62,22l.82,3c.35.57,9.66-2,10.17-5a1.49,1.49,0,0,0,0-.21c0-.17,0-.35,0-.54,0-1-.21-2.14-.21-2.14a7.93,7.93,0,0,0-1,.14,14,14,0,0,0-1.83.46l-.47.16A32.27,32.27,0,0,0,28.62,22Z"/><polygon class="cls-9" points="27.03 35.49 27.69 35.63 27.52 36.41 26.96 35.95 27.03 35.49"/><path class="cls-1" d="M27,35.74a2.8,2.8,0,0,1-.61.34,1,1,0,0,1-.68,0,.39.39,0,0,1-.26-.21.5.5,0,0,1,0-.34,2.15,2.15,0,0,1,.39-.63A11.23,11.23,0,0,0,27,33a.45.45,0,0,1,.1-.14.23.23,0,0,1,.14,0,1.4,1.4,0,0,1,1,.08.12.12,0,0,1,.06.06.2.2,0,0,1,0,.11c0,.16.08.31.11.46A1.57,1.57,0,0,1,28,35a3.59,3.59,0,0,1-.48.37Z"/><path class="cls-8" d="M28.2,36.06c-.23.11-.46.22-.68.35.06-.26.12-.52.17-.79-.44.25-.63.77-1,1.13a2.5,2.5,0,0,1-2.13.59.92.92,0,0,1-.53-.21.16.16,0,0,1-.06-.08.22.22,0,0,1,.06-.13c.66-.84,1.36-1.65,2.09-2.43a4,4,0,0,0-.42.82.38.38,0,0,0,0,.36.33.33,0,0,0,.29.08,1.73,1.73,0,0,0,.7-.3l.52-.31a3.58,3.58,0,0,0,.45-.31,2.09,2.09,0,0,0,.65-1.7,1.64,1.64,0,0,1,.29,1.59c-.08.2-.19.37-.26.57A3.29,3.29,0,0,0,28.2,36.06Z"/><path class="cls-8" d="M26.89,33.2a.76.76,0,0,0,1.41-.06c1.48-4.49,2.93-6.8,2.1-9.61A1.36,1.36,0,0,0,29.26,22l-.64.05a1.81,1.81,0,0,0-1,1.43Z"/><path class="cls-10" d="M38.5,17.61l-.14.39-.29.78c-1.87,2.52-3.93,9.93-3.93,9.93l2.42,1.11c.58-.77,6-6.85,6.13-9.61A3.26,3.26,0,0,0,42.43,18l-3-.19Z"/><polygon class="cls-9" points="41.62 37.1 42.22 36.78 42.59 37.5 41.86 37.5 41.62 37.1"/><path class="cls-1" d="M41.72,37.34a3.37,3.37,0,0,1-.25.65,1.06,1.06,0,0,1-.52.46.42.42,0,0,1-.33,0,.54.54,0,0,1-.21-.28,2.59,2.59,0,0,1-.09-.74,11.86,11.86,0,0,0-.3-2.21.43.43,0,0,1,0-.16.35.35,0,0,1,.08-.13,1.48,1.48,0,0,1,.83-.57H41a.23.23,0,0,1,.1.07,3.27,3.27,0,0,0,.37.28,1.6,1.6,0,0,1,.59,1.38,3.92,3.92,0,0,1-.15.59Z"/><path class="cls-8" d="M42.89,36.8c-.11.23-.21.46-.3.7l-.37-.72a5.35,5.35,0,0,0,0,1.5,2.49,2.49,0,0,1-1.28,1.8,1,1,0,0,1-.54.18.21.21,0,0,1-.1,0,.18.18,0,0,1,0-.13q0-1.61.09-3.21a3.9,3.9,0,0,0,.19.9c0,.12.11.26.23.28A.32.32,0,0,0,41,38a1.79,1.79,0,0,0,.36-.68l.21-.57a3.21,3.21,0,0,0,.15-.53,2.1,2.1,0,0,0-.57-1.72,1.66,1.66,0,0,1,1.23,1c.06.2.09.4.15.6A3.6,3.6,0,0,0,42.89,36.8Z"/><path class="cls-8" d="M40.21,35.53A.75.75,0,0,0,41,34.4c-2.12-3.72-2.13-5.9-4.56-6.31A1.36,1.36,0,0,0,34.56,28l0,0a1.36,1.36,0,0,0-.09,1.91Z"/><path class="cls-11" d="M36.15,17.9a2.45,2.45,0,0,0,.92,1.48,4.72,4.72,0,0,0,2.54.65,3.78,3.78,0,0,0,1.77-.5,3.32,3.32,0,0,0,.5-.33A1.74,1.74,0,0,0,42.43,18l-.5-.81a1.65,1.65,0,0,1,0,.7,1.62,1.62,0,0,1-.93,1,3.54,3.54,0,0,1-1.07.35l-.3,0a3.89,3.89,0,0,1-1.13-.08,3.64,3.64,0,0,1-1.05-.41,2.18,2.18,0,0,1-.43-.32,4.84,4.84,0,0,1-.46-1C36.41,17.61,36.3,17.78,36.15,17.9Z"/><polygon class="cls-8" points="36.98 19.18 37.49 19.48 37.65 19.05 37.16 18.77 36.98 19.18"/><path class="cls-1" d="M37.74,12.64A3.19,3.19,0,0,0,40,11.57,1.13,1.13,0,0,1,40,13l0,0a1.12,1.12,0,0,1-1.57.18Z"/><path class="cls-10" d="M35.19,14.44a2.18,2.18,0,0,1,.49.35,1.47,1.47,0,0,1,.32.62,15.45,15.45,0,0,1,.45,1.65,1.36,1.36,0,0,0,0,.17A2.46,2.46,0,0,0,37,18.47a2.18,2.18,0,0,0,.43.32A3.76,3.76,0,0,0,41,18.9a1.62,1.62,0,0,0,.93-1,1.65,1.65,0,0,0,0-.7c0-.13,0-.27-.08-.4a.77.77,0,0,1,0-.15,6.64,6.64,0,0,1,.25-3.19l0-.1a7,7,0,0,0,.36-3C42,8.64,37.87,7,37.4,7a4.64,4.64,0,0,0-1.78-.06A1.71,1.71,0,0,0,34.31,8c-.21.69.19,1.42.19,2.15a18,18,0,0,1-.42,2A2.52,2.52,0,0,0,35.19,14.44Z"/><path class="cls-12" d="M38.06,15.2a1.74,1.74,0,0,0,1.6-.71,2,2,0,0,0,.26-1.74,2.54,2.54,0,0,1-1,1.73,2,2,0,0,1-1.94.27A2.45,2.45,0,0,0,38.06,15.2Z"/><path class="cls-13" d="M39.74,7.94a17.46,17.46,0,0,0-3.89,3.78,23.46,23.46,0,0,1,.83-5.05A13.56,13.56,0,0,1,39.74,7.94Z"/><polygon class="cls-13" points="37.54 12.29 38.74 13.06 38.95 12.06 37.75 11.29 37.54 12.29"/><path class="cls-11" d="M36.73,6.33c.56-1.3.31-1.49,0-2.86a2.88,2.88,0,0,0-.56-1.26,1.49,1.49,0,0,0-1.23-.54.25.25,0,0,0-.13.05.3.3,0,0,0-.08.16c-.85,2.57.56,5.11,1.75,5.05C37.07,6.91,36.72,6.35,36.73,6.33Z"/><path class="cls-1" d="M36.47,7.81a.59.59,0,0,0,0,.13.61.61,0,0,0,0,.12,1,1,0,0,0,.38.37,2.41,2.41,0,0,0,2.16,0,.76.76,0,0,0,.45-.62.77.77,0,0,0-.45-.63A2.64,2.64,0,0,0,38.63,7l-.21,0h-.06a1.79,1.79,0,0,0-.4,0,2.19,2.19,0,0,0-1,.25,1.26,1.26,0,0,0-.25.19l0,0a.94.94,0,0,0-.12.18A.54.54,0,0,0,36.47,7.81Z"/><rect class="cls-1" x="36.47" y="3.25" width="3.05" height="4.55"/><path class="cls-14" d="M36.47,7.39v.42a.59.59,0,0,0,0,.13,2.23,2.23,0,0,0,.85-.13,2.13,2.13,0,0,0,.85-.57A2,2,0,0,0,38.42,7a2.54,2.54,0,0,0,.16-.28,3.43,3.43,0,0,0,.27-.78A7.49,7.49,0,0,0,39,4.4a8.67,8.67,0,0,0,0-.9c0,.13,0,.26,0,.37a7.58,7.58,0,0,1-.17,1.5,2.87,2.87,0,0,1-.58,1.25l-.08.09a2.39,2.39,0,0,1-.23.22,3,3,0,0,1-1.29.44Z"/><path class="cls-1" d="M39.17,4.3a7.19,7.19,0,0,1-.33,1.35,2.36,2.36,0,0,1-2.59,1.87c-1-.34-1.18-3.61-1.09-4.95a1.86,1.86,0,0,1,.1-.58,1.37,1.37,0,0,1,1.21-1,3.55,3.55,0,0,1,1.81.36,1.5,1.5,0,0,1,.44.26c.12.1.2.24.31.35A8.53,8.53,0,0,1,39.17,4.3Z"/><path class="cls-11" d="M40.8,4.15a6.67,6.67,0,0,0-.14-2.32A2.86,2.86,0,0,0,39.4.43a4.11,4.11,0,0,0-2-.43,3.31,3.31,0,0,0-1.58.37,2.23,2.23,0,0,0-1.24,2.12c0,.23.42,1.4,1.85.7,2.21-1.09,2.56,0,2.57,0s-.13.85,0,.78c-.13.07.18,1,.16,1.1a18.35,18.35,0,0,1-.36,2S40.87,7.31,40.8,4.15Z"/><path class="cls-1" d="M39.41,3.73A.5.5,0,0,0,39,4a1.37,1.37,0,0,0-.16.52,1.18,1.18,0,0,0,0,.67.29.29,0,0,0,.14.15.41.41,0,0,0,.34,0A.51.51,0,0,0,39.5,5a3.09,3.09,0,0,0,.23-.77.47.47,0,0,0,0-.31A.37.37,0,0,0,39.41,3.73Z"/><polygon class="cls-15" points="6.59 19.4 6.59 38.23 33.7 53.87 33.7 35.05 6.59 19.4"/><polygon class="cls-16" points="33.7 53.87 50.7 44.06 50.7 25.23 33.7 35.05 33.7 53.87"/><polygon class="cls-17" points="6.59 19.4 6.59 38.23 33.7 53.87 33.7 35.05 6.59 19.4"/><polygon class="cls-10" points="33.7 53.87 50.7 44.06 50.7 25.23 33.7 35.05 33.7 53.87"/><polygon class="cls-14" points="6.59 19.4 6.59 23.91 33.7 39.55 33.7 35.05 6.59 19.4"/><polygon class="cls-14" points="33.7 39.55 50.7 29.74 50.7 25.23 33.7 35.05 33.7 39.55"/><polygon class="cls-2" points="51.95 25.95 34.54 36 5.05 18.98 22.46 8.93 51.95 25.95"/><polygon class="cls-18" points="5.05 18.98 5.05 20.41 34.54 37.44 34.54 36.01 5.05 18.98"/><polygon class="cls-18" points="34.54 37.44 51.95 27.39 51.95 25.95 34.54 36.01 34.54 37.44"/><path class="cls-1" d="M34.36,14.69,27.75,16,27.36,15l5.77-2.17a3.77,3.77,0,0,0,2.09.8A1.1,1.1,0,0,1,34.36,14.69Z"/><path class="cls-1" d="M34.8,20.83l.87.73,5.06-4.46a1.11,1.11,0,0,0,.05-1.58v0a1.12,1.12,0,0,0-1.58-.05Z"/><path class="cls-1" d="M35.72,20c.45-.13,1.07.51.61,1s-.54.92-.89,1.31a4.51,4.51,0,0,1-.53.45l-.77.59a.92.92,0,0,1-.27.16,1,1,0,0,1-.25,0c-.17,0-1-.08-1-.32s.37-.55.6-.79.36-.43.65-.69.4-.67.66-.94a3.73,3.73,0,0,1,.5-.39A2.73,2.73,0,0,1,35.72,20Z"/><path class="cls-1" d="M33.57,20.71a5.83,5.83,0,0,1-.87.51.27.27,0,0,0,.24.29.6.6,0,0,0,.39-.11,1.93,1.93,0,0,1,.36-.22,3.93,3.93,0,0,1,.92-.1,2.09,2.09,0,0,0,.79-.36,2.22,2.22,0,0,0,.42-.32c.12-.14-.08-.27-.1-.45-.53.13-.78.21-1.3.33a2.15,2.15,0,0,0-.45.14A2.92,2.92,0,0,0,33.57,20.71Z"/><path class="cls-3" d="M26.14,15.77l10.65,6.14a.15.15,0,0,1,.08.12.14.14,0,0,1-.08.11l-4,2.3a.47.47,0,0,1-.4,0L21.76,18.29a.14.14,0,0,1-.08-.11.15.15,0,0,1,.08-.12l4-2.29A.41.41,0,0,1,26.14,15.77Z"/><polygon class="cls-3" points="36.87 21.58 36.87 22.03 36.51 22.14 36.51 21.63 36.87 21.58 36.87 21.58"/><polygon class="cls-3" points="21.68 17.73 21.68 18.18 22.12 18.21 22.12 17.7 21.68 17.75 21.68 17.73"/><path class="cls-4" d="M26.14,15.31l10.65,6.15a.12.12,0,0,1,0,.23l-4,2.3a.47.47,0,0,1-.4,0L21.76,17.84a.12.12,0,0,1,0-.23l4-2.3A.47.47,0,0,1,26.14,15.31Z"/><polygon class="cls-15" points="23.9 18.49 23.9 18.49 24.01 18.55 24.57 18.23 23.93 17.87 23.38 18.18 23.9 18.49 23.9 18.49"/><polygon class="cls-15" points="31.93 23.12 32.57 23.49 33.12 23.17 32.48 22.8 31.93 23.12"/><polygon class="cls-15" points="32.34 22.72 31.7 22.36 31.15 22.67 31.79 23.04 32.34 22.72"/><polygon class="cls-15" points="30.38 22.23 31.01 22.59 31.56 22.27 30.93 21.91 30.38 22.23"/><polygon class="cls-15" points="29.6 21.78 30.23 22.14 30.79 21.82 30.15 21.46 29.6 21.78"/><polygon class="cls-15" points="28.82 21.33 29.46 21.7 30.01 21.38 29.37 21.01 28.82 21.33"/><polygon class="cls-15" points="28.04 20.88 28.68 21.25 29.23 20.93 28.59 20.56 28.04 20.88"/><polygon class="cls-15" points="28.45 20.48 27.82 20.11 27.27 20.43 27.9 20.8 28.45 20.48"/><polygon class="cls-15" points="26.49 19.98 27.12 20.35 27.68 20.03 27.04 19.66 26.49 19.98"/><polygon class="cls-15" points="26.9 19.58 26.26 19.21 25.71 19.53 26.35 19.9 26.9 19.58"/><polygon class="cls-15" points="24.16 18.63 24.79 19 25.34 18.68 24.71 18.32 24.16 18.63"/><polygon class="cls-15" points="23.24 18.1 23.79 17.79 23.15 17.42 22.6 17.74 23.24 18.1"/><polygon class="cls-15" points="32.62 22.72 33.26 23.09 33.81 22.77 33.17 22.4 32.62 22.72"/><polygon class="cls-15" points="33.03 22.32 32.4 21.95 31.84 22.27 32.48 22.64 33.03 22.32"/><polygon class="cls-15" points="31.07 21.82 31.7 22.19 32.26 21.87 31.62 21.51 31.07 21.82"/><polygon class="cls-15" points="30.29 21.38 30.93 21.74 31.48 21.43 30.84 21.06 30.29 21.38"/><polygon class="cls-15" points="29.51 20.93 30.15 21.3 30.7 20.98 30.07 20.61 29.51 20.93"/><polygon class="cls-15" points="28.74 20.48 29.37 20.85 29.93 20.53 29.29 20.16 28.74 20.48"/><polygon class="cls-15" points="29.15 20.08 28.51 19.71 27.96 20.03 28.59 20.4 29.15 20.08"/><polygon class="cls-15" points="27.18 19.58 27.82 19.95 28.37 19.63 27.73 19.26 27.18 19.58"/><polygon class="cls-15" points="27.73 19.1 28.51 19.55 29.06 19.23 28.29 18.78 27.82 18.51 27.65 18.41 27.24 18.65 27.1 18.73 26.4 19.13 27.04 19.5 27.73 19.1"/><polygon class="cls-15" points="24.85 18.23 25.48 18.6 26.04 18.28 25.4 17.91 24.85 18.23"/><polygon class="cls-15" points="25.26 17.83 24.62 17.47 24.07 17.79 24.71 18.15 25.26 17.83"/><polygon class="cls-15" points="24.48 17.39 23.85 17.02 23.29 17.34 23.93 17.7 24.48 17.39"/><polygon class="cls-15" points="33.32 22.32 33.95 22.69 34.51 22.37 33.87 22 33.32 22.32"/><polygon class="cls-15" points="33.73 21.92 33.09 21.55 32.54 21.87 33.17 22.24 33.73 21.92"/><polygon class="cls-15" points="31.76 21.43 32.4 21.79 32.95 21.47 32.31 21.11 31.76 21.43"/><polygon class="cls-15" points="30.98 20.98 31.62 21.34 32.17 21.02 31.54 20.66 30.98 20.98"/><polygon class="cls-15" points="30.21 20.53 30.84 20.89 31.39 20.58 30.76 20.21 30.21 20.53"/><polygon class="cls-15" points="29.43 20.08 30.07 20.45 30.62 20.13 29.98 19.76 29.43 20.08"/><polygon class="cls-15" points="29.84 19.68 29.2 19.31 28.65 19.63 29.29 20 29.84 19.68"/><polygon class="cls-15" points="25.54 17.83 26.18 18.2 26.73 17.88 26.09 17.52 25.54 17.83"/><polygon class="cls-15" points="25.95 17.43 25.32 17.07 24.76 17.39 25.4 17.75 25.95 17.43"/><polygon class="cls-15" points="25.18 16.98 24.54 16.62 23.99 16.94 24.62 17.3 25.18 16.98"/><polygon class="cls-15" points="33.87 21.84 34.65 22.29 35.2 21.97 34.42 21.52 34.1 21.34 33.78 21.16 33.23 21.47 33.55 21.66 33.87 21.84"/><polygon class="cls-15" points="32.45 21.02 33.09 21.39 33.64 21.07 33.01 20.71 32.45 21.02"/><polygon class="cls-15" points="31.68 20.58 32.31 20.94 32.87 20.63 32.23 20.26 31.68 20.58"/><polygon class="cls-15" points="30.9 20.13 31.54 20.5 32.09 20.18 31.45 19.81 30.9 20.13"/><polygon class="cls-15" points="30.12 19.68 30.76 20.05 31.31 19.73 30.67 19.36 30.12 19.68"/><polygon class="cls-15" points="30.53 19.28 29.9 18.91 29.34 19.23 29.98 19.6 30.53 19.28"/><polygon class="cls-15" points="28.43 18.7 29.2 19.15 29.76 18.83 28.98 18.38 28.81 18.28 28.34 18.01 27.79 18.33 28.26 18.6 28.43 18.7"/><polygon class="cls-15" points="26.23 17.43 26.87 17.8 27.42 17.48 26.79 17.11 26.23 17.43"/><polygon class="cls-15" points="26.65 17.03 26.01 16.67 25.46 16.98 26.09 17.35 26.65 17.03"/><polygon class="cls-15" points="35.89 21.57 35.25 21.2 34.7 21.52 35.34 21.89 35.89 21.57"/><polygon class="cls-15" points="35.11 21.12 34.48 20.75 33.92 21.07 34.56 21.44 35.11 21.12"/><polygon class="cls-15" points="30.82 19.28 31.45 19.65 31.59 19.73 32.23 20.09 32.37 20.18 33.01 20.54 33.78 20.99 34.34 20.67 33.56 20.22 32.92 19.86 32.78 19.78 32.14 19.41 32 19.33 31.37 18.96 31.23 18.88 30.59 18.51 30.04 18.83 30.67 19.2 30.82 19.28"/><polygon class="cls-15" points="30.45 18.43 29.81 18.06 29.26 18.38 29.9 18.75 30.45 18.43"/><polygon class="cls-15" points="29.67 17.98 29.04 17.61 28.48 17.93 29.12 18.3 29.67 17.98"/><polygon class="cls-15" points="26.79 16.95 27.56 17.4 28.12 17.08 27.34 16.63 26.94 16.41 26.7 16.27 26.15 16.59 26.39 16.72 26.79 16.95"/><polygon class="cls-15" points="25.87 16.59 26.56 16.18 25.93 15.82 25.23 16.22 24.68 16.54 25.32 16.9 25.87 16.59"/><path class="cls-1" d="M41.21,15.93l-.09.39a1.11,1.11,0,0,1-1.33.84h0a1.12,1.12,0,0,1-.84-1.34L39,15.5A3,3,0,0,0,41.21,15.93Z"/><path class="cls-2" d="M41.41,10.15h0a1.12,1.12,0,0,1,.84,1.34l-1.06,4.43A3,3,0,0,1,39,15.5L40.07,11A1.13,1.13,0,0,1,41.41,10.15Z"/><path class="cls-1" d="M28.79,15.68c.36-.31.16-1.18-.49-1-.49.12-1.06,0-1.57,0a3.83,3.83,0,0,0-.68.21l-.91.33a.78.78,0,0,0-.44.33c-.1.14-.45.85-.28,1,0,.18.66,0,1-.08s.56-.08.93-.17.77,0,1.15-.06a3,3,0,0,0,.59-.21A2.58,2.58,0,0,0,28.79,15.68Z"/><path class="cls-1" d="M27,17.09a5.4,5.4,0,0,0-.9.45.27.27,0,0,1-.11-.36.61.61,0,0,1,.3-.27,2.64,2.64,0,0,0,.38-.18c.25-.17.36-.49.57-.72a2.12,2.12,0,0,1,.74-.47,1.81,1.81,0,0,1,.49-.18c.18,0,.18.21.32.32-.39.38-.59.54-1,.92a2.49,2.49,0,0,1-.36.3A3.71,3.71,0,0,1,27,17.09Z"/><path class="cls-10" d="M34.44,10.69a12.12,12.12,0,0,0-.36,1.44,2.52,2.52,0,0,0,1.11,2.31,3.38,3.38,0,0,1,.48.33C35.91,13.22,35.78,11.71,34.44,10.69Z"/><path class="cls-3" d="M36.47,28.22c1.53.88,1.53,2.31,0,3.2a6.16,6.16,0,0,1-5.55,0c-1.53-.89-1.53-2.32,0-3.2A6.1,6.1,0,0,1,36.47,28.22Z"/><path class="cls-4" d="M36.47,27.82c1.53.89,1.53,2.32,0,3.21a6.16,6.16,0,0,1-5.55,0c-1.53-.89-1.53-2.32,0-3.21A6.16,6.16,0,0,1,36.47,27.82Z"/><polygon class="cls-19" points="40.67 28.24 26.71 28.24 25.95 18.91 41.44 18.91 40.67 28.24"/><polygon class="cls-7" points="27.41 27.48 26.77 19.67 40.62 19.67 39.98 27.48 27.41 27.48"/><rect class="cls-5" x="25.95" y="18.2" width="15.5" height="0.71"/><polygon class="cls-4" points="31.47 25.2 31.24 22.43 36.15 22.43 35.92 25.2 31.47 25.2"/><polygon class="cls-20" points="31.47 25.2 27.41 27.48 26.77 19.67 31.24 22.43 31.47 25.2"/><polygon class="cls-21" points="35.92 25.2 39.98 27.48 40.62 19.67 36.15 22.43 35.92 25.2"/><polygon class="cls-4" points="31.47 25.2 27.41 27.48 39.98 27.48 35.92 25.2 31.47 25.2"/><path class="cls-3" d="M31.86,21.86a.14.14,0,0,1-.14.14h0a.14.14,0,0,1-.14-.14v-1.5a.14.14,0,0,1,.14-.14h0a.14.14,0,0,1,.14.14Z"/><path class="cls-3" d="M32.3,21.86a.14.14,0,0,1-.14.14h0a.14.14,0,0,1-.14-.14v-1.5a.14.14,0,0,1,.14-.14h0a.14.14,0,0,1,.14.14Z"/><path class="cls-3" d="M32.74,21.86a.14.14,0,0,1-.14.14h0a.14.14,0,0,1-.14-.14v-1.5a.14.14,0,0,1,.14-.14h0a.14.14,0,0,1,.14.14Z"/><path class="cls-3" d="M33.18,21.86A.14.14,0,0,1,33,22h0a.14.14,0,0,1-.14-.14v-1.5a.14.14,0,0,1,.14-.14h0a.14.14,0,0,1,.14.14Z"/><path class="cls-3" d="M33.61,21.86a.13.13,0,0,1-.13.14h0a.14.14,0,0,1-.14-.14v-1.5a.14.14,0,0,1,.14-.14h0a.13.13,0,0,1,.13.14Z"/><path class="cls-3" d="M34.05,21.86a.14.14,0,0,1-.14.14h0a.14.14,0,0,1-.14-.14v-1.5a.14.14,0,0,1,.14-.14h0a.14.14,0,0,1,.14.14Z"/><path class="cls-3" d="M34.49,21.86a.14.14,0,0,1-.14.14h0a.14.14,0,0,1-.14-.14v-1.5a.14.14,0,0,1,.14-.14h0a.14.14,0,0,1,.14.14Z"/><path class="cls-3" d="M34.93,21.86a.14.14,0,0,1-.14.14h0a.14.14,0,0,1-.14-.14v-1.5a.14.14,0,0,1,.14-.14h0a.14.14,0,0,1,.14.14Z"/><path class="cls-3" d="M35.37,21.86a.14.14,0,0,1-.14.14h0a.14.14,0,0,1-.14-.14v-1.5a.14.14,0,0,1,.14-.14h0a.14.14,0,0,1,.14.14Z"/><path class="cls-3" d="M35.8,21.86a.13.13,0,0,1-.13.14h0a.14.14,0,0,1-.14-.14v-1.5a.14.14,0,0,1,.14-.14h0a.13.13,0,0,1,.13.14Z"/><path class="cls-3" d="M34.41,29a.44.44,0,0,1,0,.83,1.59,1.59,0,0,1-1.44,0A.44.44,0,0,1,33,29,1.59,1.59,0,0,1,34.41,29Z"/><path class="cls-3" d="M33.89,23.82H33.5a.82.82,0,0,0-.82.82v4.77h2V24.64A.82.82,0,0,0,33.89,23.82Z"/><path class="cls-3" d="M24.78,14.4s0,0,0,0h0a.05.05,0,0,1,0,0c-.26-.53-1.1-.71-1.95-.5a2.09,2.09,0,0,0-.82.39.93.93,0,0,0-.42,1.06h0a.44.44,0,0,0,.12.19.58.58,0,0,0,.14.12l0,0a1.7,1.7,0,0,0,1.49,0l1.15-.67C24.75,14.79,24.84,14.59,24.78,14.4Zm-2.23-.06h0l-.05,0-.05,0Z"/><path class="cls-3" d="M24.49,14.72l-1.15.66a1.63,1.63,0,0,1-1.49,0,.59.59,0,0,1-.17-.13.47.47,0,0,1-.12-.2h0a.36.36,0,0,1,0-.1.55.55,0,0,1,.31-.43L23,13.86a1.63,1.63,0,0,1,1.49,0,.68.68,0,0,1,.26.24l0,0h0v0C24.84,14.37,24.75,14.57,24.49,14.72Z"/><path class="cls-7" d="M22.5,14.09l-.05,0A.7.7,0,0,0,22,14a.94.94,0,0,0-.42,1.07h0a.67.67,0,0,0,.12.2.4.4,0,0,0,.14.11A2.08,2.08,0,0,1,22.5,14.09Z"/><path class="cls-4" d="M22.5,14.09a2.08,2.08,0,0,0-.68,1.27l0,0a1.63,1.63,0,0,0,1.49,0l.22-.12A1.87,1.87,0,0,0,22.5,14.09Z"/><path class="cls-3" d="M24.78,14.18v0h0l0,0c-.26-.53-1.1-.71-1.95-.5A2.08,2.08,0,0,0,22,14a.7.7,0,0,1,.47.08,2,2,0,0,1,1.11,1.2l.93-.54C24.75,14.57,24.84,14.37,24.78,14.18Z"/><polygon class="cls-2" points="22.6 20.27 18.21 17.74 12.15 21.23 16.54 23.77 22.6 20.27"/><polygon class="cls-3" points="14.1 21.23 13.92 21.13 13.73 21.23 13.91 21.34 14.1 21.23"/><polygon class="cls-3" points="17.07 22.94 14.41 21.41 14.22 21.52 16.88 23.05 17.07 22.94"/><polygon class="cls-3" points="14.52 20.99 14.34 20.89 14.15 21 14.33 21.1 14.52 20.99"/><polygon class="cls-3" points="17.48 22.7 14.82 21.17 14.63 21.27 17.3 22.81 17.48 22.7"/><polygon class="cls-3" points="14.93 20.75 14.75 20.65 14.57 20.76 14.74 20.86 14.93 20.75"/><polygon class="cls-3" points="17.9 22.46 15.24 20.93 15.05 21.04 17.71 22.57 17.9 22.46"/><polygon class="cls-3" points="18.32 22.22 15.17 20.41 14.98 20.52 18.13 22.33 18.32 22.22"/><polygon class="cls-3" points="18.73 21.98 16.48 20.68 16.29 20.79 18.54 22.09 18.73 21.98"/><polygon class="cls-3" points="19.15 21.74 17.92 21.04 17.73 21.15 18.96 21.85 19.15 21.74"/><path class="cls-22" d="M16.54,20.39a1.21,1.21,0,0,1-1.08,0,.33.33,0,0,1,0-.62,1.21,1.21,0,0,1,1.08,0A.33.33,0,0,1,16.54,20.39Zm-.05,0a.29.29,0,0,0,0-.56,1.06,1.06,0,0,0-1,0,.29.29,0,0,0,0,.56A1.06,1.06,0,0,0,16.49,20.36Z"/><path class="cls-22" d="M16.34,20.28a.74.74,0,0,1-.68,0,.21.21,0,0,1,0-.4.74.74,0,0,1,.68,0A.21.21,0,0,1,16.34,20.28Zm0,0a.19.19,0,0,0,0-.36.68.68,0,0,0-.62,0,.19.19,0,0,0,0,.36A.68.68,0,0,0,16.31,20.26Z"/><path class="cls-22" d="M16.25,20.22a.55.55,0,0,1-.5,0,.15.15,0,0,1,0-.28.55.55,0,0,1,.5,0C16.39,20,16.39,20.14,16.25,20.22Zm0,0a.14.14,0,0,0,0-.26.51.51,0,0,0-.45,0c-.13.07-.13.19,0,.26A.51.51,0,0,0,16.23,20.21Z"/><path class="cls-22" d="M17.17,20.23a.22.22,0,0,0-.11,0h0s0,0,0,0,.07,0,.08,0,0,0,0,0a1,1,0,0,1-.22.15h0a.62.62,0,0,0-.23.18s0,0,0,.05h.08l.24-.1a.9.9,0,0,1,.27-.11.11.11,0,0,1,.08,0s0,0,0,0l-.08.05a.4.4,0,0,0-.17.14v0l0,0a.16.16,0,0,0,.07,0l.1,0,.14,0h0l0,0a.21.21,0,0,0-.09.1s0,0,0,0h.15l0,0s0,.05,0,.08a.14.14,0,0,0,.11,0h0s0,0,0,.05a.06.06,0,0,0,.06.05h0s0,0,0,0l0,0s0,0,0,0a0,0,0,0,0,0,0h-.09l-.06,0a.07.07,0,0,1,0-.06l.07,0,0,0h0a.25.25,0,0,0-.12,0h-.07a.23.23,0,0,1,.07-.1l0,0s0,0,0,0h-.05l-.15,0-.1,0s0,0,0,0h0a.33.33,0,0,1,.15-.13l.08-.06c.05,0,0-.05,0-.06s-.09,0-.13,0a1.26,1.26,0,0,0-.29.12l-.23.1h0s0,0,0,0a.45.45,0,0,1,.21-.17h0a1.34,1.34,0,0,0,.23-.16s0,0,0-.06Z"/><polygon class="cls-23" points="22.37 19.42 17.97 16.89 11.91 20.39 16.3 22.92 22.37 19.42"/><polygon class="cls-24" points="13.86 20.38 13.69 20.28 13.5 20.39 13.68 20.49 13.86 20.38"/><polygon class="cls-24" points="16.83 22.09 14.17 20.56 13.98 20.67 16.64 22.2 16.83 22.09"/><polygon class="cls-24" points="14.28 20.14 14.1 20.04 13.91 20.15 14.09 20.25 14.28 20.14"/><polygon class="cls-24" points="17.25 21.86 14.59 20.32 14.4 20.43 17.06 21.96 17.25 21.86"/><polygon class="cls-24" points="14.7 19.9 14.52 19.8 14.33 19.91 14.51 20.01 14.7 19.9"/><polygon class="cls-24" points="17.66 21.61 15 20.08 14.81 20.19 17.48 21.72 17.66 21.61"/><polygon class="cls-24" points="18.08 21.38 14.93 19.56 14.74 19.67 17.89 21.48 18.08 21.38"/><polygon class="cls-24" points="18.49 21.14 16.24 19.83 16.05 19.94 18.31 21.24 18.49 21.14"/><polygon class="cls-24" points="18.91 20.9 17.69 20.19 17.5 20.3 18.72 21 18.91 20.9"/><path class="cls-25" d="M16.3,19.54a1.19,1.19,0,0,1-1.07,0,.33.33,0,0,1,0-.62,1.19,1.19,0,0,1,1.07,0A.33.33,0,0,1,16.3,19.54Zm-.05,0c.27-.15.27-.4,0-.56a1,1,0,0,0-1,0c-.27.16-.27.41,0,.56A1,1,0,0,0,16.25,19.51Z"/><path class="cls-25" d="M16.11,19.43a.76.76,0,0,1-.69,0,.21.21,0,0,1,0-.39.76.76,0,0,1,.69,0A.21.21,0,0,1,16.11,19.43Zm0,0c.18-.1.18-.26,0-.36a.68.68,0,0,0-.62,0,.19.19,0,0,0,0,.36A.68.68,0,0,0,16.07,19.41Z"/><path class="cls-25" d="M16,19.38a.6.6,0,0,1-.49,0,.15.15,0,0,1,0-.29.53.53,0,0,1,.49,0A.15.15,0,0,1,16,19.38Zm0,0c.13-.07.13-.19,0-.26a.51.51,0,0,0-.45,0c-.13.07-.13.19,0,.26A.51.51,0,0,0,16,19.36Z"/><path class="cls-25" d="M16.93,19.38a.22.22,0,0,0-.11,0s0,0,0,0a0,0,0,0,0,0,0s.08,0,.09,0a.08.08,0,0,1,0,0,.94.94,0,0,1-.22.15h0a.51.51,0,0,0-.22.18s0,.05,0,.05a.14.14,0,0,0,.09,0,.94.94,0,0,0,.23-.1.86.86,0,0,1,.28-.11h.07s0,0,0,0l-.08,0c-.07,0-.14.08-.16.14s0,0,0,0a0,0,0,0,0,0,0,.16.16,0,0,0,.07,0l.11,0,.13,0h0l0,0a.21.21,0,0,0-.09.1.05.05,0,0,0,0,.05h.16l0,0a.07.07,0,0,0,0,.08.14.14,0,0,0,.11,0h0l0,.05a.06.06,0,0,0,.06.05s0,0,0,0,0,0,0,0a0,0,0,0,1,0,0l0,0v0H17.3s-.06,0-.06,0,0,0,0-.05a.13.13,0,0,1,.07-.05l0,0h0a.24.24,0,0,0-.12,0h-.08s0-.06.08-.1l0,0s0,0,0,0h0a.37.37,0,0,0-.15,0l-.1,0h0c0-.05.09-.09.16-.13l.08,0s0-.06,0-.07-.08,0-.13,0a1.26,1.26,0,0,0-.29.12l-.23.1h0v0a.56.56,0,0,1,.22-.17h0a.84.84,0,0,0,.23-.16s0,0,0-.06Z"/><polygon class="cls-26" points="24.46 20.95 20.46 17.84 13.98 20.48 17.98 23.59 24.46 20.95"/><polygon class="cls-3" points="15.91 20.74 15.75 20.61 15.55 20.69 15.71 20.82 15.91 20.74"/><polygon class="cls-3" points="18.62 22.84 16.19 20.95 15.99 21.04 18.42 22.92 18.62 22.84"/><polygon class="cls-3" points="16.36 20.56 16.19 20.43 15.99 20.51 16.15 20.64 16.36 20.56"/><polygon class="cls-3" points="19.06 22.66 16.64 20.77 16.43 20.86 18.86 22.74 19.06 22.66"/><polygon class="cls-3" points="16.8 20.38 16.64 20.25 16.44 20.33 16.6 20.46 16.8 20.38"/><polygon class="cls-3" points="19.5 22.48 17.08 20.59 16.88 20.68 19.3 22.56 19.5 22.48"/><polygon class="cls-3" points="19.95 22.3 17.08 20.07 16.88 20.15 19.75 22.38 19.95 22.3"/><polygon class="cls-3" points="20.39 22.12 18.34 20.52 18.14 20.6 20.19 22.2 20.39 22.12"/><polygon class="cls-3" points="20.84 21.94 19.72 21.07 19.52 21.15 20.64 22.02 20.84 21.94"/><path class="cls-22" d="M18.44,20.24a1.18,1.18,0,0,1-1.06-.15c-.27-.21-.24-.48.08-.61a1.19,1.19,0,0,1,1.07.14A.33.33,0,0,1,18.44,20.24Zm0,0c.29-.12.32-.37.07-.56a1,1,0,0,0-1-.14.3.3,0,0,0-.07.56A1.11,1.11,0,0,0,18.4,20.21Z"/><path class="cls-22" d="M18.26,20.1a.76.76,0,0,1-.67-.09c-.17-.14-.15-.31.05-.39a.78.78,0,0,1,.68.09C18.49,19.84,18.46,20,18.26,20.1Zm0,0c.19-.08.21-.24.05-.36a.66.66,0,0,0-.61-.08c-.18.07-.21.23-.05.35A.7.7,0,0,0,18.23,20.08Z"/><path class="cls-22" d="M18.18,20a.59.59,0,0,1-.5-.06.16.16,0,0,1,0-.29.56.56,0,0,1,.5.07C18.34,19.85,18.32,20,18.18,20Zm0,0c.13-.06.15-.17,0-.26a.48.48,0,0,0-.45-.06c-.13.05-.15.17,0,.26A.51.51,0,0,0,18.16,20Z"/><path class="cls-22" d="M19.09,20.17a.25.25,0,0,0-.11,0s0,0,0,0,0,0,0,0,.08,0,.09,0,0,0,0,0a.89.89,0,0,1-.24.12h0a.48.48,0,0,0-.25.15s0,0,0,0h.08l.25-.07a.88.88,0,0,1,.29-.07.08.08,0,0,1,.07,0s0,0,0,0l-.09,0a.41.41,0,0,0-.18.12v0s0,0,0,0H19l.11,0h.14l0,0s-.08.05-.09.09a0,0,0,0,0,0,.05h.16l-.05,0a.06.06,0,0,0,0,.07.14.14,0,0,0,.11.06h0l0,.05a.07.07,0,0,0,.05.06h0s0,0,0,0,0,0,0,0,0,0,0,0a0,0,0,0,0,0,0h0s0,0-.06,0h0a.06.06,0,0,1-.06,0,0,0,0,0,1,0-.05l.07,0h0a.17.17,0,0,0-.12,0h-.08v0a.36.36,0,0,1,.09-.08l0,0s0,0,0,0h-.05l-.16,0H19s0,0,0,0h0a.45.45,0,0,1,.17-.1l.09-.05c.05,0,0,0,0-.06s-.08,0-.13,0a1.32,1.32,0,0,0-.3.07.84.84,0,0,1-.24.07h0s0,0,0,0a.57.57,0,0,1,.24-.14h0a.73.73,0,0,0,.25-.12s0,0,0-.07Z"/><path class="cls-3" d="M16.13,43.43a.55.55,0,0,0,.55.55.55.55,0,0,0,.55-.55.55.55,0,0,0-.55-.55A.54.54,0,0,0,16.13,43.43Z"/><path class="cls-3" d="M17.42,49a.55.55,0,0,0,1.1,0,.55.55,0,1,0-1.1,0Z"/><path class="cls-3" d="M8.57,51.54a.55.55,0,0,0,.55.55.54.54,0,0,0,.55-.55A.55.55,0,0,0,9.12,51,.55.55,0,0,0,8.57,51.54Z"/><path class="cls-3" d="M1.94,47.6a.55.55,0,0,0,.55.55A.55.55,0,0,0,3,47.6a.55.55,0,0,0-.55-.55A.54.54,0,0,0,1.94,47.6Z"/><path class="cls-3" d="M6,42.25a.55.55,0,0,0,1.1,0,.55.55,0,0,0-1.1,0Z"/><polygon class="cls-4" points="5.97 41.82 5.97 41.07 6.99 41.52 10.82 45.09 16.37 42.38 17.17 42.09 17.17 42.85 12.48 46.05 18.66 47.51 18.66 48.26 18.14 48.85 11.41 47.27 9.68 51.34 8.55 51.23 8.55 50.48 9.09 47.05 1.84 47.36 1.66 46.71 1.66 45.95 8.72 45.71 5.97 41.82"/><polygon class="cls-5" points="5.97 41.07 6.99 40.77 10.82 44.33 16.37 41.63 17.17 42.09 12.48 45.3 18.66 47.51 18.14 48.09 11.41 46.51 9.68 50.58 8.55 50.48 9.09 46.3 1.84 46.6 1.66 45.95 8.72 44.95 5.97 41.07"/><path class="cls-4" d="M9.76,45a.46.46,0,0,0,0,.87,1.65,1.65,0,0,0,1.5,0,.46.46,0,0,0,0-.87A1.65,1.65,0,0,0,9.76,45Z"/><rect class="cls-4" x="9.45" y="38.63" width="2.12" height="6.83"/><path class="cls-6" d="M10.59,32.22,19,37.06c.39.22.7,0,.7-.4v0a3.57,3.57,0,0,0-1.61-2.8l-7.48-4.32c-.38-.22-.7,0-.7.41V31A1.58,1.58,0,0,0,10.59,32.22Z"/><path class="cls-7" d="M12.1,29.59,9.87,15.13a1.29,1.29,0,0,0-.65-.91l-1.08-.43c-.32-.13-.54.1-.48.51L9.8,28.51a1.27,1.27,0,0,0,.57.87l1.16.67C11.9,30.26,12.17,30,12.1,29.59Z"/><polygon class="cls-6" points="11.85 41.51 19.55 37.06 10.13 29.45 2.41 33.91 11.85 41.51"/><polygon class="cls-7" points="0.23 18.19 7.81 13.81 11.94 30.09 4.33 34.49 0.23 18.19"/><path class="cls-3" d="M2.94,36.64l8.39,4.84c.39.23.7.05.7-.4v0a3.55,3.55,0,0,0-1.62-2.8L2.94,33.93c-.39-.22-.7,0-.7.41v1.08A1.54,1.54,0,0,0,2.94,36.64Z"/><path class="cls-3" d="M4.45,34,2.22,19.56a1.25,1.25,0,0,0-.65-.91L.49,18.22c-.32-.13-.54.1-.48.5L2.15,32.94a1.29,1.29,0,0,0,.57.87l1.16.67C4.24,34.69,4.52,34.46,4.45,34Z"/><polygon class="cls-5" points="17.61 33.74 18.94 32.98 18.94 28.43 18.41 27.67 12.13 24.13 10.8 24.89 16.74 28.04 17.6 29.31 17.61 33.74"/><path class="cls-5" d="M11.57,25.48l.22.12.45.26v2.42a1.35,1.35,0,0,0,.62,1.06L17.49,32v.77c0,.39-.28.55-.62.36l-5.3-3.06A1.38,1.38,0,0,1,11,29V25.83C11,25.44,11.23,25.28,11.57,25.48Z"/><path class="cls-4" d="M10.5,25.57v3.19a2.35,2.35,0,0,0,1.07,1.84l5.3,3.06c.58.34,1.06.07,1.06-.61V29.86A2.36,2.36,0,0,0,16.87,28l-4.63-2.67-.45-.26L11.57,25C11,24.62,10.5,24.9,10.5,25.57Zm.45.26c0-.39.28-.55.62-.35l.22.12.45.26,4.63,2.67a1.38,1.38,0,0,1,.62,1.07v3.19c0,.39-.28.55-.62.36l-5.3-3.06A1.38,1.38,0,0,1,11,29Z"/><path class="cls-5" d="M17.93,32.27v.52l.23.13c.58.34,1.06.07,1.06-.61V29.12a2.35,2.35,0,0,0-1.06-1.84l-5.3-3.06c-.59-.34-1.07-.07-1.07.61v.26l.45.26v-.26c0-.39.28-.55.62-.36l5.3,3.06a1.37,1.37,0,0,1,.61,1.07v3.19c0,.39-.27.55-.61.35Z"/><path class="cls-27" d="M17.59,53.15a4.42,4.42,0,0,0-1.76-1.95.85.85,0,0,1-.32-.58l-.06-.27h0a1.1,1.1,0,0,0-.26-.5l-2.08-.11c-.09.13-.18.28-.27.43h0a4.32,4.32,0,0,0-.22.43h0a3.62,3.62,0,0,0-.29.93,3.17,3.17,0,0,0-.08.55h0a.58.58,0,0,0,.38.54l2.87,1.51a2,2,0,0,0,1.79-.06.68.68,0,0,0,.34-.46h0v-.11A1.13,1.13,0,0,0,17.59,53.15Z"/><path class="cls-3" d="M17.7,53.64c0,.06,0,0,0,0a.68.68,0,0,1-.34.46,2,2,0,0,1-1.83.06L12.6,52.62c-.45-.24-.4-.55-.4-.55a1.4,1.4,0,0,1,.14-.6c-.09.25.91.62,1.34,1a7.58,7.58,0,0,0,2,1.24,2.93,2.93,0,0,0,.87.22,1.11,1.11,0,0,0,.82-.27.55.55,0,0,0,.17-.53A.84.84,0,0,1,17.7,53.64Z"/><path class="cls-3" d="M17.1,39.14l-2.5,1.53-1.95-1.14L5.48,35.36a2,2,0,0,1-1-1.59l-.25-3.59c2.35,1.25,5.19,2.37,7.6,3.58a19.2,19.2,0,0,1,3.31,2A4.27,4.27,0,0,1,17.1,39.14Z"/><path class="cls-3" d="M12.38,50.1c0-3.23.12-10.43.32-10.79a3.61,3.61,0,0,1,1-1.16,2.59,2.59,0,0,1,1.85-.56,1.93,1.93,0,0,1,1.55,1.55c.14.79-1.12,10.53-1.26,11s-1.27.1-1.72.23Z"/><path class="cls-3" d="M15.83,50.14a.84.84,0,0,1-.32.48l-.14.1-.18.09-.2.09a2.78,2.78,0,0,1-2.07-.09,1.14,1.14,0,0,1-.3-.21.72.72,0,0,1-.24-.5h0a.89.89,0,0,1,.48-.71,2.73,2.73,0,0,1,2.46-.09C15.73,49.52,15.91,49.83,15.83,50.14Z"/><path class="cls-27" d="M22.31,50.45a4.39,4.39,0,0,0-1.76-2,.85.85,0,0,1-.32-.58l-.06-.27h0a1,1,0,0,0-.26-.49L17.83,47l-.27.43h0c-.08.14-.15.28-.22.43h0a3.58,3.58,0,0,0-.29.94,3.05,3.05,0,0,0-.08.54h0a.58.58,0,0,0,.38.54l2.87,1.51A2,2,0,0,0,22,51.37a.68.68,0,0,0,.34-.46h0V50.8A1.12,1.12,0,0,0,22.31,50.45Z"/><path class="cls-3" d="M22.42,50.93c0,.06,0,0,0,0a.68.68,0,0,1-.34.46,2,2,0,0,1-1.83.07l-2.92-1.54c-.45-.25-.4-.56-.4-.56a1.4,1.4,0,0,1,.14-.6c-.09.25.91.62,1.34,1a7.43,7.43,0,0,0,2,1.24,2.65,2.65,0,0,0,.87.22,1.11,1.11,0,0,0,.82-.27.55.55,0,0,0,.17-.53A.84.84,0,0,1,22.42,50.93Z"/><path class="cls-3" d="M21.82,36.43,19.31,38,10,33.07c-.58-.34-.75-1.35-.8-2l.24-3C14.71,30.84,22.12,32.78,21.82,36.43Z"/><path class="cls-3" d="M17.1,47.39c0-3.22.12-10.43.32-10.79a3.36,3.36,0,0,1,1-1.15,2.56,2.56,0,0,1,1.85-.57,1.94,1.94,0,0,1,1.55,1.55C22,37.22,20.7,47,20.56,47.49s-1.27,0-1.73.16Z"/><path class="cls-3" d="M20,46.63A.74.74,0,0,1,20.1,48a2.73,2.73,0,0,1-2.46.1.75.75,0,0,1-.05-1.42A2.68,2.68,0,0,1,20,46.63Z"/><path class="cls-12" d="M15.16,35.78a19.2,19.2,0,0,0-3.31-2A2,2,0,0,0,13.14,32a3.27,3.27,0,0,0,.21,1.78C13.68,34.61,14.89,35,15.16,35.78Z"/><path class="cls-26" d="M14.54,23.64a1.74,1.74,0,0,1-1.11,2.19h0a1.73,1.73,0,0,1-2.19-1.11L9.18,18.79a1.74,1.74,0,0,1,1.11-2.2h0a1.75,1.75,0,0,1,2.2,1.12Z"/><path class="cls-26" d="M18.37,28.19c-.07,0-.32.13-.86-.15l-3-1.27L12,25.72a1.74,1.74,0,0,1-.76-2.34,1.7,1.7,0,0,1,.42-.53,2.48,2.48,0,0,1,.26-.19l.16-.07a1.72,1.72,0,0,1,1.5,0L19,26.56C19.54,26.93,18.66,28,18.37,28.19Z"/><path class="cls-28" d="M12.72,29.69a3.18,3.18,0,0,1-1.61,2.76l-1.21.7-1.71,1A3.2,3.2,0,0,1,3.4,31.35L3.31,28a1.85,1.85,0,0,0,0-.23v-.07l-.19-7a9.45,9.45,0,0,1,3.31-3.28A3.63,3.63,0,0,1,12,19.86a5.34,5.34,0,0,1,.11,1.08l.53,8Z"/><path class="cls-26" d="M6.24,19a3.63,3.63,0,0,0,2.68,1.56c.07-.63.35-1.3.43-1.89a6.43,6.43,0,0,1,1.22.7,3,3,0,0,0-.2-1.6A2.12,2.12,0,0,0,8.88,16.6a3.81,3.81,0,0,0-.67-.07A2.1,2.1,0,0,0,6,17.82,2.34,2.34,0,0,0,6.24,19Z"/><path class="cls-1" d="M9.79,18.2a1,1,0,0,1-.38.37l0,0A2.63,2.63,0,0,1,7,18.6a.73.73,0,0,1,0-1.38,1.87,1.87,0,0,1,.51-.2,1.45,1.45,0,0,1,.3-.06l.15,0h.25a2.48,2.48,0,0,1,1.2.29,1,1,0,0,1,.44.45.93.93,0,0,1,0,.13A.62.62,0,0,1,9.79,18.2Z"/><rect class="cls-1" x="6.47" y="13.52" width="3.39" height="4.39"/><path class="cls-14" d="M8.17,32.86l0,1.27A3.2,3.2,0,0,1,3.4,31.35L3.31,28a1.85,1.85,0,0,0,0-.23v-.07c0-.72,1.51-1.64,1.65-2.33s.33-1.62.5-2.43a2.65,2.65,0,0,1,.36-1c.09,1.65.19,2.71.28,4.36a1.34,1.34,0,0,0,.24.78c.23.34,3.07,2.12,3.32,2.91A2.41,2.41,0,0,1,8.17,32.86Z"/><polygon class="cls-5" points="8.69 38.88 10.01 38.12 10.01 33.57 9.48 32.81 3.2 29.27 1.88 30.04 7.82 33.18 8.67 34.45 8.69 38.88"/><path class="cls-5" d="M2.64,30.62l.23.13.44.26v2.41a1.38,1.38,0,0,0,.62,1.07l4.63,2.67v.77c0,.4-.28.56-.62.36l-5.3-3.06A1.38,1.38,0,0,1,2,34.16V31C2,30.58,2.3,30.42,2.64,30.62Z"/><path class="cls-4" d="M1.57,30.71v3.2a2.36,2.36,0,0,0,1.07,1.84l5.3,3.06c.59.33,1.06.06,1.06-.62V35a2.35,2.35,0,0,0-1.06-1.84L3.31,30.49l-.44-.26-.23-.13C2.05,29.76,1.57,30,1.57,30.71ZM2,31c0-.39.28-.55.62-.35l.23.13.44.26,4.63,2.67a1.35,1.35,0,0,1,.62,1.07v3.18c0,.4-.28.56-.62.36l-5.3-3.06A1.38,1.38,0,0,1,2,34.16Z"/><path class="cls-5" d="M9,37.45V38l.23.13c.59.34,1.06.07,1.06-.61V34.29a2.33,2.33,0,0,0-1.06-1.84l-5.3-3.06c-.59-.34-1.06-.07-1.06.61v.26l.44.26v-.26c0-.39.28-.55.62-.35L9.23,33A1.37,1.37,0,0,1,9.84,34v3.19c0,.39-.27.55-.61.36Z"/><path class="cls-26" d="M5.48,28.76a1.76,1.76,0,0,1-1.91,1.58h0A1.76,1.76,0,0,1,2,28.43l.63-6.7a1.75,1.75,0,0,1,1.9-1.58h0A1.75,1.75,0,0,1,6.1,22.06Z"/><path class="cls-26" d="M9.76,31.24c2.12,1-.27,1.9-.27,1.9s0,.21-.81-.27L2.81,30.28a1.75,1.75,0,0,1-.63-2.4h0a1.76,1.76,0,0,1,2.4-.62Z"/><path class="cls-1" d="M9,31.39a1.23,1.23,0,0,0-.41,1.25,4.27,4.27,0,0,0,.57,1.25,3.26,3.26,0,0,1,.4,1c.06.23.06.33.1.54s.43.41.43,0c.12.72.58.58.58.34a.27.27,0,0,0,.51-.18c.09.33.36.14.4-.17A5.19,5.19,0,0,0,11,32.3a2.32,2.32,0,0,0-.81-.89A1.1,1.1,0,0,0,9,31.39Z"/><path class="cls-1" d="M12.17,33.29a.33.33,0,0,1,.16.29.31.31,0,0,1-.3.23c-.33,0-.75-.34-1-.6a1.53,1.53,0,0,1-.35-.68,6.71,6.71,0,0,0-.31-1A7.89,7.89,0,0,0,12.17,33.29Z"/><path class="cls-1" d="M17.81,26.54a1.24,1.24,0,0,0-.41,1.24A4.27,4.27,0,0,0,18,29a3,3,0,0,1,.4,1c.06.22.06.41.1.62.12.58.73.59.61.06,0,.51.63.51.5-.14.09.35.52.4.38-.46.09.32.41.1.35-.4a7.22,7.22,0,0,0-.54-2.22,2.25,2.25,0,0,0-.81-.89A1.13,1.13,0,0,0,17.81,26.54Z"/><path class="cls-1" d="M17.5,29.85a.32.32,0,0,0,.11.32A.31.31,0,0,0,18,30.1c.25-.21.24-.77.2-1.1a1.44,1.44,0,0,0-.27-.72,7.45,7.45,0,0,1-.49-.87A7.87,7.87,0,0,1,17.5,29.85Z"/><path class="cls-14" d="M9.85,17.8a.62.62,0,0,1-.06.4,1,1,0,0,1-.38.37,2.44,2.44,0,0,1-1.49-1.63,4.53,4.53,0,0,1-.13-.66h0l2.27.23.11,1.28Z"/><path class="cls-1" d="M11.37,15.39l-.28.1c0,.2.1,1.06.1,1.06,0,.5-.21,1.2-.81,1.23H9.73a2.38,2.38,0,0,1-1.56-.88,2.2,2.2,0,0,1-.37-.65,1.92,1.92,0,0,1-.13-.64h0c-.5,0-1.33.41-1.53,0a5.26,5.26,0,0,1-.51-1.83,3.86,3.86,0,0,1,0-.59c.23-2.23,1.8-2.33,2.79-2.41A2.55,2.55,0,0,1,10.69,12a3.68,3.68,0,0,1,.48,1.5c-.05.2-.11.37-.11.37l.5,1.07A.31.31,0,0,1,11.37,15.39Z"/><path class="cls-3" d="M6.48,16.39c2,.28.73-1.92.73-1.92s.51.69.69.88a5.21,5.21,0,0,0,.62-.08c-.08-2.53-1-4,1.84-3.68,0-.4-.27-1-2.19-1-1.49,0-2.89.9-2.85,2.39A4.64,4.64,0,0,0,6.48,16.39Z"/><path class="cls-1" d="M6.89,14.69c0,.47.47,1,.78,1s.24-.4.2-.87c0-.31,0-.75-.32-.82S6.84,14,6.89,14.69Z"/></g></g></svg>