<svg xmlns="http://www.w3.org/2000/svg" viewBox="0 0 52.85 60.17"><defs><style>.cls-1{fill:#d9052f;}.cls-2{fill:#94211b;}.cls-3{fill:#ffcea1;}.cls-4{fill:#a14440;}.cls-5{fill:#ededed;}.cls-6{fill:#ffc187;}.cls-7{fill:#1d1d1b;opacity:0.2;}.cls-8{fill:#ffdfab;}.cls-9{fill:#262626;}.cls-10{fill:#fff;}.cls-11{fill:#a16958;}.cls-12{fill:#21211f;opacity:0.1;}.cls-13{fill:#dadada;}.cls-14{fill:#f8f8f8;}</style></defs><title>Asset 2</title><g id="Layer_2" data-name="Layer 2"><g id="Layer_1-2" data-name="Layer 1"><path class="cls-1" d="M24.18,31.51l-.1.73s0,0,0,.06h0a1.34,1.34,0,0,1-1.34,1.12h0a1.34,1.34,0,0,1-1.3-1.18h0a.25.25,0,0,0,0-.08l-.23-3.07L20.94,27h0l-.7-6.24-.06-.55a.64.64,0,0,1-.05-.17,1.08,1.08,0,0,1,.43-.95A7.13,7.13,0,0,1,22.91,18h0a8.41,8.41,0,0,1,.37.87C24.51,22.18,24.37,26.82,24.18,31.51Z"/><polygon class="cls-2" points="22.7 45.09 22.04 45.12 22.07 45.91 22.69 45.55 22.7 45.09"/><path class="cls-3" d="M22.73,45.35a2.44,2.44,0,0,0,.53.43,1,1,0,0,0,.65.14.47.47,0,0,0,.29-.16.5.5,0,0,0,0-.34,2.32,2.32,0,0,0-.28-.67,10.4,10.4,0,0,1-.81-2,.25.25,0,0,0-.21-.21,1.36,1.36,0,0,0-1-.08l-.08,0a.36.36,0,0,0,0,.11c-.05.15-.13.28-.18.42a1.53,1.53,0,0,0,.17,1.45,3.31,3.31,0,0,0,.4.44Z"/><path class="cls-4" d="M21.48,45.46a4.85,4.85,0,0,1,.59.45l0-.79c.38.31.48.84.76,1.24a2.43,2.43,0,0,0,2,.91,1,1,0,0,0,.54-.11.14.14,0,0,0,.07-.08.17.17,0,0,0,0-.13c-.5-.91-1-1.81-1.61-2.68a3.86,3.86,0,0,1,.26.86.36.36,0,0,1-.05.35.33.33,0,0,1-.29,0,1.69,1.69,0,0,1-.63-.4l-.45-.38a3.5,3.5,0,0,1-.39-.38,2,2,0,0,1-.34-1.73,1.58,1.58,0,0,0-.54,1.48c0,.2.12.39.16.58A3.4,3.4,0,0,1,21.48,45.46Z"/><path class="cls-1" d="M23.2,42.92a.74.74,0,0,1-1.35-.29c-.68-3.91-1.05-7.51-.45-10.24a1.32,1.32,0,0,1,1.35-1.3h0a1.31,1.31,0,0,1,1.3,1.34Z"/><path class="cls-1" d="M21.51,19.3l0,.4-.06.81L20.94,27l-.47,6.49-.1.72a.13.13,0,0,1,0,.06h0A1.33,1.33,0,0,1,19,35.43h0a1.32,1.32,0,0,1-1.29-1.17h0a.17.17,0,0,1,0-.07l-.23-3.08-.41-4.49a7.12,7.12,0,0,1,0-5.74l.45-1.36.29-.89,2.79.51Z"/><polygon class="cls-2" points="18.99 47.11 18.33 47.13 18.36 47.92 18.98 47.56 18.99 47.11"/><path class="cls-3" d="M19,47.36a3,3,0,0,0,.53.43,1,1,0,0,0,.66.14.42.42,0,0,0,.28-.16.49.49,0,0,0,0-.34,2.17,2.17,0,0,0-.28-.67,11.83,11.83,0,0,1-.81-2,.27.27,0,0,0-.07-.14.27.27,0,0,0-.13-.07,1.4,1.4,0,0,0-1-.08l-.07,0a.22.22,0,0,0-.05.11A3.93,3.93,0,0,1,18,45a1.54,1.54,0,0,0,.17,1.44,2.85,2.85,0,0,0,.41.44Z"/><path class="cls-4" d="M17.77,47.47a6.7,6.7,0,0,1,.6.45c0-.27,0-.53,0-.79.38.31.49.84.77,1.25a2.42,2.42,0,0,0,1.95.9.83.83,0,0,0,.54-.11.16.16,0,0,0,.07-.07.22.22,0,0,0,0-.14Q20.88,47.6,20,46.29a4.2,4.2,0,0,1,.27.85.39.39,0,0,1-.06.35.33.33,0,0,1-.29,0,1.57,1.57,0,0,1-.63-.4l-.45-.38a3.41,3.41,0,0,1-.38-.38,2,2,0,0,1-.35-1.73,1.55,1.55,0,0,0-.53,1.48c0,.2.11.39.15.59A3.29,3.29,0,0,1,17.77,47.47Z"/><path class="cls-1" d="M19.5,44.93a.74.74,0,0,1-1.35-.29c-.58-4-1.32-8.24-.46-10.24A1.33,1.33,0,0,1,19,33.1h0a1.33,1.33,0,0,1,1.3,1.35Z"/><path class="cls-3" d="M24.08,13.21a3.17,3.17,0,0,1-1.95,1.4,1.08,1.08,0,0,0,1.19.65h0A1.09,1.09,0,0,0,24.22,14Z"/><path class="cls-5" d="M24.08,13.21,23,8.39c-.11-.59-2,.63-1.86,1.23l.9,4.75a.85.85,0,0,0,.08.24A3.17,3.17,0,0,0,24.08,13.21Z"/><path class="cls-6" d="M27.91,16l-.57.95-4.65-1.68a1.08,1.08,0,0,1-.54-1.44v0a1.1,1.1,0,0,1,1.45-.55Z"/><path class="cls-1" d="M23.52,14.43a2.67,2.67,0,0,0-.39.44,1.69,1.69,0,0,0-.16.67,15.33,15.33,0,0,0,0,1.66v.17a2.47,2.47,0,0,1-.22,1.3,2.2,2.2,0,0,1-.33.41A3.73,3.73,0,0,1,19,20a1.68,1.68,0,0,1-1.1-.71,1.57,1.57,0,0,1-.16-.67l0-.4v-.14a6.54,6.54,0,0,0-1-3,.41.41,0,0,0-.05-.09,6.85,6.85,0,0,1-1-2.73c0-1.8,3.58-4.29,4-4.47a5,5,0,0,1,1.67-.46,1.71,1.71,0,0,1,1.5.73c.36.61.14,1.39.3,2.08s.64,1.18.86,1.82A2.45,2.45,0,0,1,23.52,14.43Z"/><path class="cls-7" d="M21,15.81a1.71,1.71,0,0,1-1.68-.31,1.92,1.92,0,0,1-.64-1.6A2.47,2.47,0,0,0,20,15.32a2,2,0,0,0,1.91-.18A2.67,2.67,0,0,1,21,15.81Z"/><path class="cls-7" d="M17.84,17.07a2.8,2.8,0,0,1-.08,1.55c0-.13,0-.27,0-.4a6.47,6.47,0,0,0-1-3.11c0-.13.06-.26.08-.39a6.41,6.41,0,0,1,1-2.57C18.31,13.72,17.7,15.43,17.84,17.07Z"/><path class="cls-3" d="M15.08,16.7l-.06.39a1.09,1.09,0,0,0,.92,1.24h0a1.09,1.09,0,0,0,1.24-.92l.05-.32A3,3,0,0,1,15.08,16.7Z"/><path class="cls-6" d="M16.52,24.14l-1.1-.1L15,17.47a1.1,1.1,0,0,1,1.06-1.13h0a1.1,1.1,0,0,1,1.12,1.06Z"/><path class="cls-3" d="M16.52,24.14c-.11-.45-1-.66-1.12,0s-.51.91-.66,1.39a3.13,3.13,0,0,0-.12.68l-.12.94a1,1,0,0,0,0,.3.88.88,0,0,0,.1.22c.07.15.54.78.77.71s.28-.58.37-.9.18-.51.26-.88.37-.66.47-1a3.19,3.19,0,0,0,.08-.61A2.61,2.61,0,0,0,16.52,24.14Z"/><path class="cls-3" d="M16.94,26.32a6.54,6.54,0,0,0,0,1,.27.27,0,0,1-.36-.06.67.67,0,0,1-.1-.39,2.82,2.82,0,0,0,0-.41c0-.3-.27-.53-.38-.82a2.18,2.18,0,0,1-.08-.85,1.79,1.79,0,0,1,.07-.51c0-.16.26-.06.42-.13.15.5.2.75.36,1.26a1.65,1.65,0,0,1,.1.44A2.59,2.59,0,0,1,16.94,26.32Z"/><path class="cls-3" d="M16.52,24.14c-.11-.45-1-.66-1.12,0s-.51.91-.66,1.39a3.13,3.13,0,0,0-.12.68l-.12.94a1,1,0,0,0,0,.3.88.88,0,0,0,.1.22c.07.15.54.78.77.71s.28-.58.37-.9.18-.51.26-.88.37-.66.47-1a3.19,3.19,0,0,0,.08-.61A2.61,2.61,0,0,0,16.52,24.14Z"/><path class="cls-3" d="M16.94,26.32a6.54,6.54,0,0,0,0,1,.27.27,0,0,1-.36-.06.67.67,0,0,1-.1-.39,2.82,2.82,0,0,0,0-.41c0-.3-.27-.53-.38-.82a2.18,2.18,0,0,1-.08-.85,1.79,1.79,0,0,1,.07-.51c0-.16.26-.06.42-.13.15.5.2.75.36,1.26a1.65,1.65,0,0,1,.1.44A2.59,2.59,0,0,1,16.94,26.32Z"/><path class="cls-8" d="M16.52,24.14c-.11-.45-1-.66-1.12,0s-.51.91-.66,1.39a3.13,3.13,0,0,0-.12.68l-.12.94a1,1,0,0,0,0,.3.88.88,0,0,0,.1.22c.07.15.54.78.77.71s.28-.58.37-.9.18-.51.26-.88.37-.66.47-1a3.19,3.19,0,0,0,.08-.61A2.61,2.61,0,0,0,16.52,24.14Z"/><path class="cls-8" d="M16.94,26.32a6.54,6.54,0,0,0,0,1,.27.27,0,0,1-.36-.06.67.67,0,0,1-.1-.39,2.82,2.82,0,0,0,0-.41c0-.3-.27-.53-.38-.82a2.18,2.18,0,0,1-.08-.85,1.79,1.79,0,0,1,.07-.51c0-.16.26-.06.42-.13.15.5.2.75.36,1.26a1.65,1.65,0,0,1,.1.44A2.59,2.59,0,0,1,16.94,26.32Z"/><path class="cls-8" d="M16.52,24.14c-.11-.45-1-.66-1.12,0s-.51.91-.66,1.39a3.13,3.13,0,0,0-.12.68l-.12.94a1,1,0,0,0,0,.3.88.88,0,0,0,.1.22c.07.15.54.78.77.71s.28-.58.37-.9.18-.51.26-.88.37-.66.47-1a3.19,3.19,0,0,0,.08-.61A2.61,2.61,0,0,0,16.52,24.14Z"/><path class="cls-8" d="M16.94,26.32a6.54,6.54,0,0,0,0,1,.27.27,0,0,1-.36-.06.67.67,0,0,1-.1-.39,2.82,2.82,0,0,0,0-.41c0-.3-.27-.53-.38-.82a2.18,2.18,0,0,1-.08-.85,1.79,1.79,0,0,1,.07-.51c0-.16.26-.06.42-.13.15.5.2.75.36,1.26a1.65,1.65,0,0,1,.1.44A2.59,2.59,0,0,1,16.94,26.32Z"/><path class="cls-6" d="M16.52,24.14c-.11-.45-1-.66-1.12,0s-.51.91-.66,1.39a3.13,3.13,0,0,0-.12.68l-.12.94a1,1,0,0,0,0,.3.88.88,0,0,0,.1.22c.07.15.54.78.77.71s.28-.58.37-.9.18-.51.26-.88.37-.66.47-1a3.19,3.19,0,0,0,.08-.61A2.61,2.61,0,0,0,16.52,24.14Z"/><path class="cls-6" d="M16.94,26.32a6.54,6.54,0,0,0,0,1,.27.27,0,0,1-.36-.06.67.67,0,0,1-.1-.39,2.82,2.82,0,0,0,0-.41c0-.3-.27-.53-.38-.82a2.18,2.18,0,0,1-.08-.85,1.79,1.79,0,0,1,.07-.51c0-.16.26-.06.42-.13.15.5.2.75.36,1.26a1.65,1.65,0,0,1,.1.44A2.59,2.59,0,0,1,16.94,26.32Z"/><path class="cls-6" d="M16.52,24.14c-.11-.45-1-.66-1.12,0s-.51.91-.66,1.39a3.13,3.13,0,0,0-.12.68l-.12.94a1,1,0,0,0,0,.3.88.88,0,0,0,.1.22c.07.15.54.78.77.71s.28-.58.37-.9.18-.51.26-.88.37-.66.47-1a3.19,3.19,0,0,0,.08-.61A2.61,2.61,0,0,0,16.52,24.14Z"/><path class="cls-6" d="M16.94,26.32a6.54,6.54,0,0,0,0,1,.27.27,0,0,1-.36-.06.67.67,0,0,1-.1-.39,2.82,2.82,0,0,0,0-.41c0-.3-.27-.53-.38-.82a2.18,2.18,0,0,1-.08-.85,1.79,1.79,0,0,1,.07-.51c0-.16.26-.06.42-.13.15.5.2.75.36,1.26a1.65,1.65,0,0,1,.1.44A2.59,2.59,0,0,1,16.94,26.32Z"/><path class="cls-9" d="M23.28,18.84a2,2,0,0,1-.42.71,4.26,4.26,0,0,1-4.05,1.12,2.55,2.55,0,0,1-.55-.19,1.67,1.67,0,0,1-.78-1l.29-.89a1.57,1.57,0,0,0,.16.67A1.68,1.68,0,0,0,19,20a3.69,3.69,0,0,0,1.1.08,3.79,3.79,0,0,0,1.35-.38,3.7,3.7,0,0,0,.9-.62,2.2,2.2,0,0,0,.33-.41,1.67,1.67,0,0,0,.2-.7A8.41,8.41,0,0,1,23.28,18.84Z"/><path class="cls-7" d="M21.27,25.34a3.5,3.5,0,0,1,.27-1.2c.26-.49.79-.85.91-1.4a5,5,0,0,1-.95.89,1.19,1.19,0,0,1-1.23.09,1.13,1.13,0,0,1,.44.87c.14.9.12,1.54.23,2.45Z"/><polygon class="cls-10" points="22.5 19.73 21.96 20.13 21.92 19.56 22.45 19.14 22.5 19.73"/><path class="cls-5" d="M17,11.38h0a1.09,1.09,0,0,0-1.24.91l-.62,4.41a3,3,0,0,0,2.17.4l.63-4.47A1.1,1.1,0,0,0,17,11.38Z"/><path class="cls-6" d="M22.11,12.8c-.11-1.32-.79-2.54-.89-3.86l-.91.32c-.07,0-.14,0-.17.1C20.77,10.53,21.85,11.49,22.11,12.8Z"/><path class="cls-6" d="M27.91,16c-.45-.1-1,.57-.53,1s.59.86,1,1.2a3.74,3.74,0,0,0,.55.41l.79.52a.84.84,0,0,0,.27.13,1,1,0,0,0,.24,0c.17,0,.94-.15,1-.38s-.4-.51-.65-.73-.38-.39-.67-.63-.44-.61-.72-.87a3.42,3.42,0,0,0-.51-.33A2.23,2.23,0,0,0,27.91,16Z"/><path class="cls-6" d="M30.05,16.58a7.29,7.29,0,0,0,.89.43.27.27,0,0,1-.21.3.56.56,0,0,1-.4-.08c-.12-.06-.23-.14-.36-.19a4.48,4.48,0,0,0-.9,0,2.06,2.06,0,0,1-.8-.3,2,2,0,0,1-.43-.28c-.12-.12.06-.27.07-.44l1.29.22a2.18,2.18,0,0,1,.44.11A2.14,2.14,0,0,1,30.05,16.58Z"/><path class="cls-11" d="M21.91,0h0Z"/><path class="cls-6" d="M21.15,8.06a.63.63,0,0,1,0,1.19,2.29,2.29,0,0,1-2.07,0,.63.63,0,0,1,0-1.2A2.29,2.29,0,0,1,21.15,8.06Z"/><path class="cls-9" d="M22.12.57a1.15,1.15,0,0,1,.72.27,2.48,2.48,0,0,1,1.14,2,6.32,6.32,0,0,0-.06.75.66.66,0,0,0,.35.61,2.52,2.52,0,0,1-2.17-.9A2,2,0,0,1,22,1C22,.87,22.15.72,22.12.57Z"/><polygon class="cls-6" points="21.64 4.86 21.62 6.33 21.57 8.48 21.57 8.66 18.64 8.63 18.71 4.82 21.64 4.86"/><path class="cls-12" d="M21.62,6.33l-.05,2.15a2.36,2.36,0,0,1-1-2.23Z"/><path class="cls-6" d="M23.52,4.11c0-.18,0-.55,0-.72a2.32,2.32,0,0,0-.87-1.76,2.89,2.89,0,0,0-3.09-.3A2.84,2.84,0,0,0,18,3.39a2.29,2.29,0,0,0,.46,1.8c.61,1,2,1.16,2.08,1.25a2.27,2.27,0,0,0,1,1.36,1.15,1.15,0,0,0,1.55-.46A2.92,2.92,0,0,0,23.48,6a.33.33,0,0,1,0-.14c.06-.09.3-.07.31-.27A13,13,0,0,1,23.52,4.11Z"/><path class="cls-9" d="M17,4.2a1.5,1.5,0,0,0,.37,1.22c.08.07.18.12.23.22a.73.73,0,0,1,0,.44,1.58,1.58,0,0,0,.31,1.19,3,3,0,0,0,2,.89l.8.11a2.53,2.53,0,0,1-.53-1.61c.09-.39.28-.76.36-1.16a2.25,2.25,0,0,0-.31-1.75,3.44,3.44,0,0,0,1.93-.19,2.3,2.3,0,0,0,1.16-1.33A1.34,1.34,0,0,0,22.54.68a2.33,2.33,0,0,0-.63-.26,4.3,4.3,0,0,0-3.47.44,2.77,2.77,0,0,0-.8.8.94.94,0,0,0-.17.81.67.67,0,0,1,0,.28c0,.06-.06,0-.11.1A2.07,2.07,0,0,0,17,4.2Z"/><path class="cls-6" d="M19.78,5.09a2.32,2.32,0,0,0,.15,1,.46.46,0,0,0,.11.16.42.42,0,0,0,.17.1.28.28,0,0,0,.28,0,.51.51,0,0,0,.16-.4,2.36,2.36,0,0,0,0-.75.94.94,0,0,0-.35-.59.31.31,0,0,0-.42.06A.66.66,0,0,0,19.78,5.09Z"/><polygon class="cls-10" points="21.47 13.19 19.78 14.18 19.77 13.1 21.46 12.11 21.47 13.19"/><rect class="cls-1" x="33.29" y="11" width="8.45" height="27.86"/><path class="cls-13" d="M33,34.86l3.84,2.22a1.21,1.21,0,0,1,0,2.3l-20,11.53a4.45,4.45,0,0,1-4,0L9,48.69a4.43,4.43,0,0,0-4,0L.82,51.12a1.22,1.22,0,0,0,0,2.3l10.07,5.81a8.71,8.71,0,0,0,7.89,0L51.21,40.5c2.18-1.25,2.18-3.29,0-4.55L41.15,30.14a4.39,4.39,0,0,0-4,0L33,32.56A1.21,1.21,0,0,0,33,34.86Z"/><path class="cls-14" d="M33,33.93l3.84,2.21a1.21,1.21,0,0,1,0,2.3L16.83,50a4.39,4.39,0,0,1-4,0L9,47.76a4.37,4.37,0,0,0-4,0L.82,50.18a1.22,1.22,0,0,0,0,2.3l10.07,5.81a8.71,8.71,0,0,0,7.89,0L51.21,39.57c2.18-1.26,2.18-3.3,0-4.56L41.15,29.2a4.45,4.45,0,0,0-4,0L33,31.63A1.21,1.21,0,0,0,33,33.93Z"/><path class="cls-1" d="M14.83,58.3a7.18,7.18,0,0,1-3.47-.82L1.29,51.67C1,51.5.94,51.35.94,51.33s.06-.16.35-.33l4.2-2.43A3.23,3.23,0,0,1,7,48.22a3.19,3.19,0,0,1,1.52.35l3.83,2.22a5.12,5.12,0,0,0,2.46.6,5.06,5.06,0,0,0,2.46-.6l20-11.54a2.13,2.13,0,0,0,0-3.92l-3.84-2.22c-.29-.17-.35-.31-.35-.33s.06-.17.35-.34L37.63,30a3.5,3.5,0,0,1,3,0l10.06,5.81c.74.42,1.17,1,1.17,1.46s-.43,1-1.17,1.46L18.31,57.48A7.19,7.19,0,0,1,14.83,58.3Z"/><polygon class="cls-1" points="51.91 16.46 18.37 30.64 0.94 29.66 0.94 51.33 17.17 54.67 51.91 37.29 51.91 16.46"/><path class="cls-13" d="M33,12.77,36.8,15a1.21,1.21,0,0,1,0,2.3l-20,11.53a4.45,4.45,0,0,1-4,0L9,26.6a4.43,4.43,0,0,0-4,0L.82,29a1.22,1.22,0,0,0,0,2.3l10.07,5.81a8.71,8.71,0,0,0,7.89,0L51.21,18.41c2.18-1.25,2.18-3.29,0-4.55L41.15,8.05a4.39,4.39,0,0,0-4,0L33,10.47A1.21,1.21,0,0,0,33,12.77Z"/><path class="cls-14" d="M33,11.84l3.84,2.21a1.21,1.21,0,0,1,0,2.3l-20,11.53a4.39,4.39,0,0,1-4,0L9,25.67a4.37,4.37,0,0,0-4,0L.82,28.09a1.22,1.22,0,0,0,0,2.3L10.89,36.2a8.71,8.71,0,0,0,7.89,0L51.21,17.48c2.18-1.26,2.18-3.3,0-4.55L41.15,7.11a4.45,4.45,0,0,0-4,0L33,9.54A1.21,1.21,0,0,0,33,11.84Z"/><path class="cls-10" d="M41.22,33.05a1.35,1.35,0,0,1,.58-.84l.33-.19V32s0-.05,0-.08,0,0,0,0l-.15.09-.07,0c-.11,0-.2,0-.23-.05l-.17-.38a.28.28,0,0,1,0-.25.53.53,0,0,1,.23-.26l0,0L41.66,31h-.18l-.07,0-3,.88a.42.42,0,0,1-.16,0l-1.3-.54c-.19-.09-.32-.05-.62.07A52.54,52.54,0,0,0,31,34.5a2.19,2.19,0,0,0-.83,1l-.56,1.4,0,.12a.09.09,0,0,0-.12,0l-.33.12h0a.42.42,0,0,0-.17.27l-.34,2.14c0,.13,0,.2.14.17l.29-.11c0-.1,0-.2,0-.23v0l.42-.24c.31-.18.58-.09.65.21l.06.49.2-.11h0l0-.23A2,2,0,0,1,31,38.13l.08-.07.08-.06.08,0,.87-.5.1-.05.07,0,.08,0a.5.5,0,0,1,.66.51l0,.23h0l5.25-3h0v-.23A2.1,2.1,0,0,1,39,33.52l.08-.06.08-.06.08,0,.86-.5.11-.05.07,0,.08,0c.37-.09.62.11.66.52l0,.22h0l.13-.07ZM29.39,37.91,29.2,39a.37.37,0,0,1-.14.2l0,0v0h0s-.08,0-.1,0,0-.06,0-.11l.07-.33.12-.68a.28.28,0,0,1,.13-.18l.06,0h0v0a.11.11,0,0,1,.11,0A.17.17,0,0,1,29.39,37.91Zm2.25-3.42c-.05.17-.12.38-.2.6s-.25.77-.35,1.08a.28.28,0,0,1-.11.15h0l-1,.58c-.05,0-.09,0-.11,0a.19.19,0,0,1,0-.15l.1-.25c.13-.34.27-.69.4-1,.2-.47.37-.67,1.21-1.15a.09.09,0,0,1,.11,0A.17.17,0,0,1,31.64,34.49Zm.78,1.37a.08.08,0,0,1,0,.07l-.5.27s0,0,0,0v-.11a.07.07,0,0,1,0-.07l.49-.27s0,0,0,0Zm2.1-1.63a.3.3,0,0,1,0,.11.24.24,0,0,1-.08.09h0l-2.54,1.4a.09.09,0,0,1-.1,0,.16.16,0,0,1,0-.12A6.65,6.65,0,0,1,32.41,34a.29.29,0,0,1,.11-.11c.18-.12.34-.22.52-.32l.28-.16,0,0,.31-.17L34,33l.24-.13.2-.12c.11-.06.13,0,.13.08Zm1-.07a.08.08,0,0,1,0,.06l-.49.27s0,0,0,0v-.11a.08.08,0,0,1,0-.07l.49-.27s0,0,0,0Zm2.42-1.65a.75.75,0,0,1-.3.26l0,0h0l0,0h0l0-.14L35,34.1c-.07,0-.12,0-.12-.07V32.61a.21.21,0,0,1,.1-.17l1.31-.68c.29-.11.34-.12.46-.06l.93.39,0-.27h0c.13,0,.22.29.23.49A.48.48,0,0,1,37.94,32.51Z"/><path class="cls-10" d="M41.54,31.37a.19.19,0,0,0,0,.15l.16.38s.09.05.16,0l.06,0,.15-.08a.49.49,0,0,0,0-.26,1.85,1.85,0,0,0-.11-.24.66.66,0,0,0-.06-.12s-.05,0-.09,0l-.06,0A.51.51,0,0,0,41.54,31.37Z"/><path class="cls-10" d="M30,39.33c-.07-.27-.32-.35-.61-.19l-.37.22c0,.12,0,.5,0,.5v0c0,.2,0,.27.13.33a3.88,3.88,0,0,0,1-.05l.15-.09h0l0-.32-.24.13Zm-.77.58c-.05,0-.1,0-.12-.18s0-.26.07-.28.11,0,.12.18S29.28,39.88,29.23,39.91Z"/><path class="cls-10" d="M41.27,33l-.09.41-.16.1,0,.29v0l.31-.18.29-.21A.88.88,0,0,0,42,33a.06.06,0,0,0,0,0l.13-.8v0l-.3.18A1.2,1.2,0,0,0,41.27,33Zm.62-.42a.36.36,0,0,1-.11.24c-.05,0-.08,0-.07-.14a.42.42,0,0,1,.12-.24C41.88,32.45,41.91,32.51,41.89,32.62Z"/><polygon class="cls-10" points="33.06 38.44 33.07 38.46 38.25 35.47 38.25 35.45 38.27 35.13 33.04 38.15 33.06 38.44"/><path class="cls-10" d="M29,38.72l-.06.31s0,.06,0,.07H29l0,0a.18.18,0,0,0,.06-.09l.06-.32-.09,0Z"/><path class="cls-10" d="M29.26,37.88l-.06,0a.18.18,0,0,0-.08.11l-.12.64.19-.06.13-.67a.11.11,0,0,0,0-.06S29.28,37.86,29.26,37.88Z"/><path class="cls-10" d="M37.59,32.75h0l0,0a.65.65,0,0,0,.26-.23.21.21,0,0,0,0-.15c0-.19-.08-.41-.18-.45Z"/><path class="cls-10" d="M33,37.9c0-.39-.29-.58-.63-.49l-.07,0-.08,0-.09,0-.87.5-.08.05-.07,0-.07.06a2,2,0,0,0-.65,1.25v.23l0,.38.18-.1s0,0,0,.06c.13.51.6.68,1.15.36a2.73,2.73,0,0,0,1.16-1.7s0,0,0-.07l.18-.1,0-.36ZM31.67,40c-.49.28-.89,0-.89-.52a2,2,0,0,1,.89-1.54c.49-.29.89-.06.89.51A2,2,0,0,1,31.67,40Z"/><path class="cls-10" d="M31.41,39.16l-.46.06a.91.91,0,0,0,0,.17.52.52,0,0,0,.23.49l.27-.63A.14.14,0,0,1,31.41,39.16Z"/><path class="cls-10" d="M31.67,39.28l-.05,0-.31.61a.64.64,0,0,0,.36-.09A1.53,1.53,0,0,0,32,39.5l-.31-.26A.1.1,0,0,1,31.67,39.28Z"/><path class="cls-10" d="M31.76,38.08l0,.54.08,0,.47-.41A.42.42,0,0,0,31.76,38.08Z"/><path class="cls-10" d="M31.56,38.75l0-.57A1.65,1.65,0,0,0,31,39l.47-.13A.76.76,0,0,1,31.56,38.75Z"/><path class="cls-10" d="M31.91,39l.26.32a1.58,1.58,0,0,0,.24-.76.88.88,0,0,0,0-.16l-.45.47Z"/><path class="cls-10" d="M31.44,39.1c0,.15.1.21.23.14a.53.53,0,0,0,.23-.41c0-.15-.1-.21-.23-.13A.49.49,0,0,0,31.44,39.1Z"/><path class="cls-10" d="M40.94,33.29a.48.48,0,0,0-.62-.49l-.08,0-.07,0-.1,0-.86.5-.08.05-.07.06a.13.13,0,0,0-.07.06,1.94,1.94,0,0,0-.65,1.24l0,.23,0,.39.18-.11s0,0,0,.06c.13.51.6.68,1.15.36a2.66,2.66,0,0,0,1.15-1.69s0,0,0-.08l.17-.1,0-.35Zm-1.29,2.1c-.49.28-.89,0-.89-.51a2,2,0,0,1,.89-1.55c.49-.28.89,0,.89.52A2,2,0,0,1,39.65,35.39Z"/><path class="cls-10" d="M39.65,34.67l0,0-.31.61a.66.66,0,0,0,.36-.1,1.53,1.53,0,0,0,.36-.32l-.31-.25Z"/><path class="cls-10" d="M39.38,34.55l-.45.06a1.1,1.1,0,0,0,0,.18.51.51,0,0,0,.24.48l.26-.63A.46.46,0,0,1,39.38,34.55Z"/><path class="cls-10" d="M39.53,34.15l0-.58a1.81,1.81,0,0,0-.58.82l.48-.13A.41.41,0,0,1,39.53,34.15Z"/><path class="cls-10" d="M39.74,33.47l0,.55a.11.11,0,0,1,.08,0l.47-.41A.4.4,0,0,0,39.74,33.47Z"/><path class="cls-10" d="M39.88,34.37l.27.32a1.56,1.56,0,0,0,.23-.75.81.81,0,0,0,0-.16l-.45.46A.5.5,0,0,1,39.88,34.37Z"/><path class="cls-10" d="M39.42,34.5c0,.15.1.21.23.13a.49.49,0,0,0,.23-.4c0-.15-.1-.21-.23-.14A.53.53,0,0,0,39.42,34.5Z"/><path class="cls-10" d="M28.21,45a.23.23,0,0,1,.1.22v1a1.06,1.06,0,0,1-.15.52,1.16,1.16,0,0,1-.37.39l-1.22.7V44.63l1.22-.71a.36.36,0,0,1,.37,0,.35.35,0,0,1,.15.34v.3a.66.66,0,0,1-.1.34,1,1,0,0,1-.08.11Zm-.6-.38-.34.2v.6l.34-.2Zm0,1.21-.34.2v.8l.34-.2Z"/><path class="cls-10" d="M28.9,43.28l1.57-.9V43l-.87.5v.61l.7-.41v.61l-.7.4v.81l.87-.51v.61l-1.57.9Z"/><path class="cls-10" d="M30.89,44.35l.7-.4v.4l.35-.2v-.71l-.7.4a.24.24,0,0,1-.25,0,.24.24,0,0,1-.1-.23v-.9a1.06,1.06,0,0,1,.15-.52,1.07,1.07,0,0,1,.37-.39l.7-.4a.37.37,0,0,1,.37,0,.36.36,0,0,1,.15.34v.4l-.69.41v-.41l-.35.2V43l.7-.4a.22.22,0,0,1,.24,0,.24.24,0,0,1,.1.23v.9a1.06,1.06,0,0,1-.15.52.93.93,0,0,1-.37.39l-.7.4a.34.34,0,0,1-.37,0,.36.36,0,0,1-.15-.34Z"/><path class="cls-10" d="M33.57,41.19l-.43.25v-.6l1.57-.91v.6l-.44.26V43.4l-.7.41Z"/><path class="cls-10" d="M36.5,39.5a1.06,1.06,0,0,1,.15-.52,1.27,1.27,0,0,1,.37-.39l.7-.4a.32.32,0,0,1,.53.3v.61l-.7.4v-.61l-.35.21v2l.35-.2V40.3l.7-.4v.6a1.08,1.08,0,0,1-.16.52.93.93,0,0,1-.37.39l-.7.4a.34.34,0,0,1-.37,0,.36.36,0,0,1-.15-.34Z"/><path class="cls-10" d="M38.84,38.15a1.14,1.14,0,0,1,.52-.91l.7-.4a.36.36,0,0,1,.37,0,.37.37,0,0,1,.15.34v2.62l-.7.4v-1l-.35.2v1l-.69.4Zm1-.6-.35.2v1l.35-.2Z"/><path class="cls-10" d="M41.17,36.2l1.22-.71a.36.36,0,0,1,.37,0,.35.35,0,0,1,.15.34v1a.66.66,0,0,1-.1.34.8.8,0,0,1-.24.27l.34.6v.4l-.69.41v-.41l-.35-.6V39l-.7.4Zm1,0-.35.2v.8l.35-.2Z"/><path class="cls-10" d="M43.51,37.06l.69-.4v.4l.35-.2v-.7l-.7.4a.21.21,0,0,1-.24,0,.23.23,0,0,1-.1-.22v-.91a1,1,0,0,1,.15-.51.93.93,0,0,1,.37-.39l.7-.4a.34.34,0,0,1,.37,0,.36.36,0,0,1,.15.34v.4l-.7.4v-.4l-.35.2v.71l.7-.41a.25.25,0,0,1,.25,0,.24.24,0,0,1,.1.22v.91a1.06,1.06,0,0,1-.15.52,1.16,1.16,0,0,1-.37.39l-.7.4a.37.37,0,0,1-.37,0,.37.37,0,0,1-.15-.34Z"/></g></g></svg>