<svg width="256" height="41" viewBox="0 0 256 41" fill="none" xmlns="http://www.w3.org/2000/svg">
<g clip-path="url(#clip0_949_592)">
<path d="M49.5676 9.12773C49.5676 7.63138 50.7548 6.4343 52.2389 6.4343H61.2916C64.5565 6.4343 67.0794 7.33211 69.0087 8.97809C70.938 10.6241 71.9768 13.0182 71.9768 16.0109C71.9768 19.1533 71.0864 21.3978 69.1571 23.0438C67.2279 24.6898 64.705 25.4379 61.44 25.4379H54.9102V33.0693C54.9102 34.5657 53.7229 35.7628 52.2389 35.7628C50.7548 35.7628 49.5676 34.5657 49.5676 33.0693V9.12773ZM60.5496 21.0985C64.5565 21.0985 66.4858 19.4525 66.4858 16.0109C66.4858 12.5693 64.5565 10.7737 60.5496 10.7737H54.9102V20.9489H60.5496V21.0985Z" fill="#2F97DD"/>
<path d="M76.5774 34.5657C75.0933 33.219 74.3513 31.573 74.3513 29.4781C74.3513 27.2336 75.0933 25.438 76.5774 24.2409C78.0615 23.0438 79.9907 22.2956 82.662 22.2956C85.1849 22.2956 87.411 22.7445 89.1919 23.792V23.1934C89.1919 21.6971 88.7467 20.7993 87.8562 20.0511C86.9658 19.4526 85.6302 19.1533 83.5525 19.1533C82.3652 19.1533 81.178 19.3029 79.9907 19.4526C79.6939 19.4526 79.5455 19.6022 79.2487 19.6022C78.0615 19.9015 76.8742 19.0037 76.8742 17.6569C76.8742 16.7591 77.4678 16.011 78.2099 15.7117C78.8035 15.562 79.3971 15.4124 80.1391 15.2628C81.4748 14.9635 82.9589 14.8139 84.1461 14.8139C87.5594 14.8139 90.2307 15.562 91.8632 17.0584C93.4957 18.5547 94.3861 20.6496 94.3861 23.3431V33.6679C94.3861 34.7153 93.4957 35.6131 92.4568 35.6131H89.4887V33.6679C88.5983 34.5657 87.7078 35.1642 86.5206 35.6131C85.4818 36.062 84.1461 36.3613 82.5136 36.3613C80.1391 36.511 78.2099 35.9124 76.5774 34.5657ZM86.9658 32.0219C87.8562 31.573 88.5983 30.9745 89.1919 30.0766V27.8321C87.7078 26.7847 85.927 26.1861 83.9977 26.1861C81.178 26.1861 79.8423 27.2336 79.8423 29.4781C79.8423 30.5256 80.1391 31.2737 80.8812 31.8723C81.6232 32.4708 82.662 32.6204 83.9977 32.6204C85.0365 32.6204 86.0754 32.4708 86.9658 32.0219Z" fill="#2F97DD"/>
<path d="M102.4 36.062C101.361 35.9124 100.471 35.6131 99.7287 35.3139C98.9867 35.0146 98.5415 34.2664 98.5415 33.5182V33.3686C98.5415 32.0219 99.8771 30.9745 101.213 31.4234C101.658 31.573 101.955 31.7226 102.4 31.7226C103.884 32.1715 105.368 32.3212 106.704 32.3212C108.039 32.3212 109.078 32.1715 109.672 32.0219C110.266 31.7226 110.562 31.2737 110.562 30.6752C110.562 30.2263 110.414 29.7774 110.117 29.4781C109.82 29.1788 109.227 28.8796 108.633 28.5803C107.891 28.281 106.852 27.9817 105.368 27.5328C103.736 27.0839 102.4 26.635 101.361 26.0365C100.471 25.5876 99.7287 24.8394 99.1351 24.0912C98.5415 23.3431 98.3931 22.2956 98.3931 21.0985C98.3931 19.1533 99.1351 17.5073 100.768 16.4599C102.4 15.4124 104.478 14.9635 107.149 14.9635C108.485 14.9635 109.969 15.1131 111.304 15.4124C112.046 15.562 112.64 15.7117 113.234 15.8613C113.976 16.1606 114.569 16.9088 114.569 17.8066C114.569 19.1533 113.234 20.2007 112.046 19.7518C111.898 19.7518 111.75 19.6022 111.601 19.6022C110.414 19.3029 109.227 19.1533 107.891 19.1533C106.555 19.1533 105.517 19.3029 104.775 19.6022C104.032 19.9015 103.736 20.3504 103.736 21.0985C103.736 21.5474 103.884 21.9963 104.329 22.2956C104.775 22.5949 105.22 22.8942 105.813 23.0438C106.407 23.1934 107.594 23.6423 109.078 23.9416C110.859 24.3905 112.195 24.989 113.085 25.438C114.124 26.0365 114.718 26.635 115.163 27.3832C115.608 28.1314 115.757 29.1788 115.757 30.3759C115.757 32.1715 115.015 33.6679 113.53 34.7153C112.046 35.7628 109.82 36.3613 107.001 36.3613C105.665 36.5109 104.032 36.3613 102.4 36.062Z" fill="#2F97DD"/>
<path d="M121.544 34.5657C120.06 33.219 119.318 31.573 119.318 29.4781C119.318 27.2336 120.06 25.438 121.544 24.2409C123.028 23.0438 124.958 22.2956 127.629 22.2956C130.152 22.2956 132.378 22.7445 134.159 23.792V23.1934C134.159 21.6971 133.714 20.7993 132.823 20.0511C131.933 19.4526 130.597 19.1533 128.519 19.1533C127.332 19.1533 126.145 19.3029 124.958 19.4526C124.661 19.4526 124.512 19.6022 124.216 19.6022C123.028 19.9015 121.841 19.0037 121.841 17.6569C121.841 16.7591 122.435 16.011 123.177 15.7117C123.77 15.562 124.364 15.4124 125.106 15.2628C126.442 14.9635 127.926 14.8139 129.113 14.8139C132.526 14.8139 135.198 15.562 136.83 17.0584C138.463 18.5547 139.353 20.6496 139.353 23.3431V33.6679C139.353 34.7153 138.463 35.6131 137.424 35.6131H134.456V33.6679C133.565 34.5657 132.675 35.1642 131.488 35.6131C130.449 36.062 129.113 36.3613 127.481 36.3613C124.958 36.511 123.028 35.9124 121.544 34.5657ZM131.933 32.0219C132.823 31.573 133.565 30.9745 134.159 30.0766V27.8321C132.675 26.7847 130.894 26.1861 128.965 26.1861C126.145 26.1861 124.809 27.2336 124.809 29.4781C124.809 30.5256 125.106 31.2737 125.848 31.8723C126.59 32.4708 127.629 32.6204 128.965 32.6204C129.855 32.6204 130.894 32.4708 131.933 32.0219Z" fill="#2F97DD"/>
<path d="M146.18 15.7117H147.367C148.406 15.7117 149.296 16.6095 149.296 17.6569V18.854C150.038 17.8066 151.225 16.9088 152.71 16.4599C153.6 16.1606 154.639 15.8613 155.678 15.7117C156.865 15.5621 157.904 16.4599 157.904 17.6569C157.904 18.7044 157.162 19.6022 156.123 19.6022C154.787 19.7518 153.6 20.0511 152.71 20.5C151.225 21.0986 150.187 22.146 149.593 23.4927V33.6679C149.593 34.7153 148.703 35.6131 147.664 35.6131H146.328C145.289 35.6131 144.399 34.7153 144.399 33.6679V17.6569C144.102 16.6095 144.992 15.7117 146.18 15.7117Z" fill="#2F97DD"/>
<path d="M162.801 33.6679C160.575 31.7226 159.536 29.1788 159.536 25.7372C159.536 22.4453 160.427 19.7518 162.356 17.8066C164.285 15.8613 166.957 14.9635 170.518 14.9635C172.893 14.9635 174.822 15.4124 176.454 16.3102C178.087 17.208 179.423 18.4051 180.165 20.0511C181.055 21.5474 181.352 23.3431 181.352 25.438V25.8869C181.352 26.9343 180.461 27.8321 179.423 27.8321H164.285C164.582 30.8248 167.253 32.3212 172.002 32.3212C173.338 32.3212 174.525 32.1715 175.861 32.0219C176.306 32.0219 176.603 31.8723 176.9 31.8723C178.087 31.573 179.274 32.4708 179.274 33.8175C179.274 34.7153 178.681 35.4635 177.939 35.7628C177.345 35.9124 176.454 36.062 175.712 36.2117C174.228 36.5109 172.744 36.6606 171.26 36.6606C167.847 36.5109 164.879 35.6131 162.801 33.6679ZM175.861 24.2409C176.306 24.2409 176.603 23.792 176.603 23.3431C176.454 22.146 175.861 21.2482 174.97 20.5C173.932 19.6022 172.448 19.1533 170.518 19.1533C168.737 19.1533 167.253 19.6022 166.214 20.5C165.176 21.3978 164.582 22.5949 164.582 24.0912H175.861V24.2409Z" fill="#2F97DD"/>
<path d="M188.327 15.7117C189.663 15.7117 190.85 16.9087 190.85 18.2555V18.4051C191.74 17.208 192.928 16.4598 194.263 15.8613C195.599 15.2628 196.934 15.1131 198.419 15.1131C201.09 15.1131 203.168 15.8613 204.503 17.3577C205.839 18.854 206.432 20.7993 206.432 23.1934V33.3686C206.432 34.7153 205.245 35.9124 203.91 35.9124H203.761C202.426 35.9124 201.238 34.7153 201.238 33.3686V23.6423C201.238 20.6496 199.903 19.1533 197.083 19.1533C195.896 19.1533 194.708 19.4525 193.67 20.0511C192.631 20.6496 191.74 21.5474 190.998 22.5949V33.219C190.998 34.5657 189.811 35.7628 188.475 35.7628H188.327C186.991 35.7628 185.804 34.5657 185.804 33.219V18.2555C185.804 16.9087 186.843 15.7117 188.327 15.7117Z" fill="#2F97DD"/>
<path d="M214.298 34.7153C213.111 33.5183 212.517 31.7226 212.517 29.4781V19.7518H211.478C210.439 19.7518 209.549 18.854 209.549 17.8066C209.549 16.7591 210.439 15.8613 211.478 15.8613H212.517V11.6715C212.517 10.6241 213.408 9.72629 214.446 9.72629H215.782C216.821 9.72629 217.711 10.6241 217.711 11.6715V15.7117H220.531C221.57 15.7117 222.46 16.6095 222.46 17.6569C222.46 18.7044 221.57 19.6022 220.531 19.6022H217.711V28.5803C217.711 29.927 218.008 30.8248 218.453 31.2737C218.899 31.8723 219.789 32.0219 220.976 32.0219C221.125 32.0219 221.273 32.0219 221.421 32.0219C222.609 31.8723 223.499 32.9197 223.499 33.9672C223.499 34.865 222.906 35.7628 222.015 35.9124C221.125 36.0621 220.234 36.2117 219.195 36.2117C217.118 36.511 215.337 35.9124 214.298 34.7153Z" fill="#2F97DD"/>
<path d="M228.1 34.5657C226.616 33.219 225.874 31.573 225.874 29.4781C225.874 27.2336 226.616 25.438 228.1 24.2409C229.584 23.0438 231.513 22.2956 234.184 22.2956C236.707 22.2956 238.933 22.7445 240.714 23.792V23.1934C240.714 21.6971 240.269 20.7993 239.379 20.0511C238.488 19.4526 237.152 19.1533 235.075 19.1533C233.888 19.1533 232.7 19.3029 231.513 19.4526C231.216 19.4526 231.068 19.6022 230.771 19.6022C229.584 19.9015 228.396 19.0037 228.396 17.6569C228.396 16.7591 228.99 16.011 229.732 15.7117C230.326 15.562 230.919 15.4124 231.661 15.2628C232.997 14.9635 234.481 14.8139 235.668 14.8139C239.082 14.8139 241.753 15.562 243.385 17.0584C245.018 18.5547 245.908 20.6496 245.908 23.3431V33.6679C245.908 34.7153 245.018 35.6131 243.979 35.6131H241.011V33.6679C240.121 34.5657 239.23 35.1642 238.043 35.6131C237.004 36.062 235.668 36.3613 234.036 36.3613C231.513 36.511 229.584 35.9124 228.1 34.5657ZM238.488 32.0219C239.379 31.573 240.121 30.9745 240.714 30.0766V27.8321C239.23 26.7847 237.449 26.1861 235.52 26.1861C232.7 26.1861 231.365 27.2336 231.365 29.4781C231.365 30.5256 231.661 31.2737 232.403 31.8723C233.145 32.4708 234.184 32.6204 235.52 32.6204C236.41 32.6204 237.449 32.4708 238.488 32.0219Z" fill="#2F97DD"/>
<path d="M253.329 4.78833C254.813 4.78833 256 5.98541 256 7.48176V33.219C256 34.7153 254.813 35.9124 253.329 35.9124C251.845 35.9124 250.657 34.7153 250.657 33.219V7.48176C250.657 5.98541 251.845 4.78833 253.329 4.78833Z" fill="#2F97DD"/>
<path d="M2.37452 28.5803L0.445241 19.1533C-1.92925 7.93066 7.86553 -1.94525 18.996 0.44891L28.3455 2.39417C40.5148 4.93796 44.967 20.0511 36.211 28.8796L28.7907 36.3613C19.8864 45.1898 4.89741 40.7007 2.37452 28.5803Z" fill="#2F97DD"/>
<path d="M27.455 17.3577C27.455 13.0182 23.8933 9.57663 19.7379 9.57663C15.8794 9.57663 12.6145 12.4197 12.0208 16.1606C11.8724 16.3102 11.8724 16.6095 11.8724 17.0584V27.3832C11.8724 29.6277 13.6533 31.4233 15.8794 31.4233C18.1055 31.4233 19.8863 29.6277 19.8863 27.3832V25.2883C24.1901 24.989 27.455 21.5474 27.455 17.3577Z" fill="white"/>
</g>
<defs>
<clipPath id="clip0_949_592">
<rect width="256" height="41" fill="white"/>
</clipPath>
</defs>
</svg>
